<?xml version="1.0" encoding="utf-8"?>
<!-- Generator: Adobe Illustrator 24.3.0, SVG Export Plug-In . SVG Version: 6.00 Build 0)  -->
<svg version="1.1" id="Layer_1" xmlns="http://www.w3.org/2000/svg" xmlns:xlink="http://www.w3.org/1999/xlink" x="0px" y="0px"
	 viewBox="0 0 25 25" style="enable-background:new 0 0 25 25;" xml:space="preserve">
<style type="text/css">
	.st0{fill:#03668E;}
	.st1{fill:#FFFFFF;}
</style>
<path class="st0" d="M21,25H4c-2.2,0-4-1.8-4-4V4c0-2.2,1.8-4,4-4h17c2.2,0,4,1.8,4,4v17C25,23.2,23.2,25,21,25z"/>
<path class="st0" d="M11.8,11.3L11.8,11.3c-0.2,0-0.4-0.2-0.4-0.4v0c0-0.2,0.2-0.4,0.4-0.4h0c0.2,0,0.4,0.2,0.4,0.4v0
	C12.2,11.1,12,11.3,11.8,11.3z"/>
<path class="st1" d="M19,6.5c0.8,0,1.5,0.7,1.5,1.5c0,0.5-0.2,0.9-0.6,1.2l-6.9,5.1c-0.4,0.3-0.9,0.3-1.2,0L5,9.2
	C4.7,8.9,4.4,8.4,4.4,8c0-0.8,0.7-1.5,1.5-1.5H19z M11.3,15.1c0.7,0.5,1.7,0.5,2.4,0l6.9-5.1v6.5c0,1.1-0.9,2-2,2H6.5
	c-1.1,0-2-0.9-2-2V10L11.3,15.1z"/>
</svg>
