<?xml version="1.0" encoding="utf-8"?>
<!-- Generator: Adobe Illustrator 24.3.0, SVG Export Plug-In . SVG Version: 6.00 Build 0)  -->
<svg version="1.1" id="Layer_1" xmlns="http://www.w3.org/2000/svg" xmlns:xlink="http://www.w3.org/1999/xlink" x="0px" y="0px"
	 viewBox="0 0 25 25" style="enable-background:new 0 0 25 25;" xml:space="preserve">
<style type="text/css">
	.st0{fill:#03668E;}
	.st1{fill:none;stroke:#03668E;stroke-miterlimit:10;}
	.st2{display:none;fill:#03668E;}
</style>
<path class="st0" d="M-24.7,31L-24.7,31c-5.4,0-9.9-4.4-9.9-9.9v0c0-5.4,4.4-9.9,9.9-9.9h0c5.4,0,9.9,4.4,9.9,9.9v0
	C-14.9,26.6-19.3,31-24.7,31z"/>
<g>
	<path class="st0" d="M22.8,0H2.2C1,0,0,1,0,2.2v20.6C0,24,1,25,2.2,25h20.6c1.2,0,2.2-1,2.2-2.2V2.2C25,1,24,0,22.8,0z M12.5,19.5
		c0,0-5.2-5-5.2-8.7c0-2.9,2.3-5.2,5.2-5.2s5.2,2.3,5.2,5.2C17.7,14.5,12.5,19.5,12.5,19.5z"/>
	<circle class="st1" cx="12.5" cy="10.5" r="2.5"/>
</g>
<path class="st2" d="M19.8,25.3H5.5c-3,0-5.5-2.5-5.5-5.5V5.5C0,2.5,2.5,0,5.5,0h14.3c3,0,5.5,2.5,5.5,5.5v14.3
	C25.3,22.9,22.9,25.3,19.8,25.3z"/>
</svg>
