<?xml version="1.0" encoding="utf-8"?>
<!-- Generator: Adobe Illustrator 24.3.0, SVG Export Plug-In . SVG Version: 6.00 Build 0)  -->
<svg version="1.1" id="Layer_1" xmlns="http://www.w3.org/2000/svg" xmlns:xlink="http://www.w3.org/1999/xlink" x="0px" y="0px"
	 viewBox="0 0 25 25" style="enable-background:new 0 0 25 25;" xml:space="preserve">
<style type="text/css">
	.st0{fill:#03668E;}
	.st1{fill:#FFFFFF;}
</style>
<path class="st0" d="M21,25H4c-2.2,0-4-1.8-4-4V4c0-2.2,1.8-4,4-4h17c2.2,0,4,1.8,4,4v17C25,23.2,23.2,25,21,25z"/>
<path class="st0" d="M11.8,11.3L11.8,11.3c-0.2,0-0.4-0.2-0.4-0.4v0c0-0.2,0.2-0.4,0.4-0.4h0c0.2,0,0.4,0.2,0.4,0.4v0
	C12.1,11.1,12,11.3,11.8,11.3z"/>
<path class="st1" d="M13.2,10.6c-0.3-0.2-0.7-0.2-0.9,0.1c-0.2,0.3-0.2,0.7,0.1,0.9c0.3,0.2,0.5,0.6,0.5,0.9c0,0.4-0.2,0.7-0.5,0.9
	c-0.3,0.2-0.3,0.6-0.1,0.9c0.1,0.1,0.3,0.2,0.5,0.2c0.1,0,0.3,0,0.4-0.1c0.6-0.5,0.9-1.2,0.9-1.9S13.8,11.1,13.2,10.6z M14.8,8.7
	c-0.3-0.2-0.7-0.2-0.9,0.1C13.7,9,13.7,9.4,14,9.6c0.9,0.7,1.4,1.8,1.4,2.9s-0.5,2.1-1.4,2.9c-0.3,0.2-0.3,0.6-0.1,0.9
	c0.1,0.1,0.3,0.2,0.5,0.2c0.1,0,0.3,0,0.4-0.1c1.2-0.9,1.8-2.3,1.8-3.8S16,9.6,14.8,8.7z M16.4,6.8c-0.3-0.2-0.7-0.2-0.9,0.1
	c-0.2,0.3-0.2,0.7,0.1,0.9c1.4,1.2,2.3,2.9,2.3,4.8s-0.8,3.6-2.3,4.8c-0.3,0.2-0.3,0.6-0.1,0.9c0.1,0.1,0.3,0.2,0.5,0.2
	c0.1,0,0.3,0,0.4-0.1c1.7-1.4,2.7-3.5,2.7-5.7S18.1,8.2,16.4,6.8z M9.8,10.4c0.3,0,0.5-0.1,0.6-0.4l0.9-2.2c0.1-0.3,0-0.6-0.2-0.8
	L9.3,6C9.1,5.9,8.8,5.9,8.6,6.1C5,9.6,5,15.4,8.6,18.9c0.2,0.2,0.5,0.2,0.8,0.1l1.7-1.1c0.3-0.2,0.4-0.5,0.2-0.8L10.4,15
	c-0.1-0.3-0.4-0.4-0.6-0.4l-1.4,0.1c-0.5-1.4-0.5-3,0-4.5L9.8,10.4z"/>
</svg>
