<?xml version="1.0" encoding="utf-8"?>
<!-- Generator: Adobe Illustrator 24.3.0, SVG Export Plug-In . SVG Version: 6.00 Build 0)  -->
<svg version="1.1" id="Layer_1" xmlns="http://www.w3.org/2000/svg" xmlns:xlink="http://www.w3.org/1999/xlink" x="0px" y="0px"
	 viewBox="0 0 461 102.6" style="enable-background:new 0 0 461 102.6;" xml:space="preserve">
<style type="text/css">
	.st0{fill:#444646;}
	.st1{fill:#009E62;}
	.st2{fill:#272929;}
</style>
<g>
	<g>
		<path class="st0" d="M303.9,73.9c0-0.6,0-1.1,0-1.7V47.9c0-6.4-2.6-11.4-7.7-14.9c-5-3.4-12.5-5.1-22.4-5.1
			c-8.9,0-15.7,2-20.5,6.1c-4.3,3.6-6.8,8.1-7.5,13.6h17.9c0.9-2,2.3-3.3,4.3-4c2-0.7,4.2-1.1,6.7-1.1c2.3,0,4.8,0.4,7.6,1.2
			s4.1,2.5,4.1,5.2c0,3.6-3.9,5.9-11.7,6.9c-1.6,0.2-3,0.4-4.3,0.7c-1.2,0.3-2.3,0.4-3.2,0.4c-5.1,0.8-9.5,2.2-13.2,4.2
			c-1.2,0.7-2.4,1.4-3.5,2.2c-4.4,3.2-6.5,8.5-6.5,16c0,8,2.4,13.7,7.2,17.2c4.8,3.5,10.4,5.2,16.8,5.2c3.2,0,6.9-0.2,11.1-0.7
			c4.2-0.4,8.1-1.6,11.9-3.6c3.6-1.8,6.6-4.7,9.2-8.7C302.4,85.2,303.7,80.2,303.9,73.9z M286.6,71.4c0,5-1.4,8.9-4.3,11.7
			c-2.8,2.8-6.8,4.3-11.7,4.3c-3,0-5.3-0.7-6.9-2.1c-1.6-1.6-2.4-3.7-2.4-6.4c0-2,0.6-3.9,1.9-5.9c1.4-1.4,3.7-2.6,6.9-3.5l6.1-1.3
			c1.2-0.3,2.3-0.6,3.3-0.9c2.9-0.8,5.3-1.7,7.1-2.6v4.4V71.4L286.6,71.4z"/>
		<path class="st0" d="M25.4,31.1c4.4-5.3,10.8-8,18.9-8c5.9,0,10.6,1.3,14.1,4c1.8,1.8,3.3,3.8,4.5,6.1c1.6,3.3,4.2,5.2,7.8,5.5
			c0.4,0,0.8,0.1,1.3,0.1h1.4h10.1c-0.9-10.3-4.6-18.3-11.2-24C65.4,9,56,6,44.3,6c-14.4,0-25.4,4.2-33.1,12.5
			C6.3,23.8,3,30.9,1.3,39.7C0.4,44.2,0,49.1,0,54.6c0,15.7,3.6,27.5,10.9,35.5c7.3,8.4,17.9,12.5,31.8,12.5
			c11.9,0,21.5-2.9,28.8-8.8c7.1-6,11.1-14.4,12-25.1H65.1c-1.4,5.9-3.8,10.1-7.2,12.8c-3.7,2.8-8.5,4.3-14.1,4.3
			c-8.2,0-14.3-2.8-18.4-8.3c-4.3-5.3-6.4-13-6.4-23c0-6.1,0.8-11.3,2.3-15.7C22.2,35.9,23.6,33.3,25.4,31.1z"/>
		<path class="st0" d="M97.9,8.7h-9.6v30.7v61.1H107V40.3V17.5c0-2.5-0.9-4.6-2.7-6.3S100.4,8.7,97.9,8.7z"/>
		<path class="st0" d="M121.4,8.7h-9.6v14.7h18.7v-5.6c0-2.5-0.9-4.6-2.7-6.4C126,9.6,123.9,8.7,121.4,8.7z"/>
		<path class="st0" d="M121.4,29.5h-9.6v11.1v59.8h18.7V42.1v-3.5c0-2.5-0.9-4.6-2.7-6.4C126,30.4,123.9,29.5,121.4,29.5z"/>
		<path class="st0" d="M230.6,34c-6.6-4.1-13.8-6.1-21.6-6.1c-3.9,0.2-7.7,0.8-11.3,1.7c-3.6,1-6.8,2.6-9.5,4.9
			c-3.2-2.7-6.8-4.4-10.7-5.3c-3.9-0.9-7.9-1.3-12-1.3c-7.6,0.4-14.6,2.6-20.9,6.7c-2.9,1.9-5.1,4.6-6.7,8.2
			c-1.9,4.2-2.8,9.6-2.8,16.1v41.6h18.7V55.1c0-4.3,1.2-7.4,3.7-9.3c0.4-0.3,0.8-0.6,1.2-0.8c2.2-1.4,4.7-2.1,7.4-2.1
			c3.2,0,6.1,1,8.7,2.9c0.6,0.4,1,0.9,1.4,1.4c1.6,1.9,2.4,4.6,2.4,7.9v3.7v41.6H197V58.8v-3.7c0-1.8,0.2-3.3,0.7-4.7
			c0.6-1.9,1.7-3.5,3.2-4.6c2.6-2,5.5-2.9,8.7-2.9s6.1,1,8.7,2.9c2.5,1.9,3.8,4.8,3.9,8.9c0,0.2,0,0.3,0,0.5v36.3
			c0,2.7,0.8,4.8,2.5,6.5s3.9,2.5,6.5,2.5h9.3V58.8c0-0.2,0-0.4,0-0.6C240.3,46.1,237,38.1,230.6,34z"/>
		<path class="st0" d="M345.1,64.2l26.7-41.1h-16c-3.7,0-6.4,1.6-8,4.8l-13.6,22.9l-12.3-21.3h-20.6l21.9,34.4l-8.4,13.2L300,100.5
			h21.6l10.5-18.1l2.5-4.3l3.5,6.3l9,16.1h21.3l-4.8-7.4L345.1,64.2z"/>
	</g>
	<g>
		<path class="st1" d="M415.8,0c7.9,0,15.8,0,23.7,0c0,7.6,0,15.3,0,22.9c7.2,0,14.3,0,21.5,0c0,6.3,0,12.7,0,19
			c-7.2,0-14.3,0-21.5,0c0,9.1,0,18.2,0,27.2c0.1,2.9,0.1,6.2,2.2,8.5c2.2,2.3,5.5,3.2,8.5,3.4c3.6,0.2,7.2,0.1,10.8,0
			c0.1,6.8,0,13.6-0.1,20.3c-3.4,0.4-6.8,0.2-10.1,0.3c-6.7-0.1-13.5,0.3-20.2-0.6c-4.1-0.6-8.4-2.1-10.9-5.6
			c-3.1-4.3-3.6-9.9-3.8-15.1c-0.1-9.3,0-18.5,0-27.8c5.5-4.9,9.1-12,9.4-19.4c0.5-8.3-3.2-16.6-9.4-22.2
			C415.9,7.5,415.9,3.7,415.8,0z"/>
		<path class="st1" d="M408.8,57.2c-7.2,3.1-15.6,3.1-22.8-0.1c0,14.9,0,29.7,0,44.6c7.6,0,15.2,0,22.7,0
			C408.8,86.9,408.8,72.1,408.8,57.2z"/>
	</g>
	<g>
		<path class="st2" d="M0,54.6C0,70.2,3.7,82.1,11,90.1c7.3,8.4,17.9,12.5,31.8,12.5c11.9,0,21.5-2.9,28.8-8.8
			c7.1-6,11.1-14.4,12-25.1H65.1c-1.4,5.9-3.8,10.1-7.2,12.8c-3.7,2.8-8.5,4.3-14.1,4.3c-8.2,0-14.3-2.8-18.4-8.3
			c-4.3-5.3-6.4-13-6.4-23c0-6.1,0.8-11.3,2.3-15.7c-6.8,0.2-13.4,0.5-19.9,0.8C0.5,44.2,0,49.1,0,54.6z"/>
		<path class="st2" d="M88.3,100.5H107V40.3c-6.3-0.4-12.5-0.7-18.7-1V100.5z"/>
		<path class="st2" d="M111.8,100.5h18.7V42.1c-6.3-0.5-12.5-1-18.7-1.4C111.8,40.6,111.8,100.5,111.8,100.5z"/>
		<path class="st2" d="M135,58.8v41.6h18.7V55.1c0-4.3,1.2-7.4,3.7-9.3c0.4-0.3,0.8-0.6,1.2-0.8c-7-0.8-13.9-1.5-20.8-2.2
			C136,46.9,135,52.3,135,58.8z"/>
		<path class="st2" d="M222,55.1v36.3c0,2.7,0.8,4.8,2.5,6.5s3.9,2.5,6.5,2.5h9.3V58.8c0-0.2,0-0.4,0-0.6
			c-6.2-1.3-12.3-2.5-18.4-3.7C222,54.8,222,54.9,222,55.1z"/>
		<path class="st2" d="M178.5,55.1v3.7v41.6h18.4V58.8v-3.7c0-1.8,0.2-3.3,0.7-4.7c-7.2-1.2-14.4-2.2-21.5-3.2
			C177.7,49.1,178.5,51.7,178.5,55.1z"/>
		<path class="st2" d="M286.6,71.4c0,5-1.4,8.9-4.3,11.7c-2.8,2.8-6.8,4.3-11.7,4.3c-3,0-5.3-0.7-6.9-2.1c-1.6-1.6-2.4-3.7-2.4-6.4
			c0-2,0.6-3.9,1.9-5.9c1.4-1.4,3.7-2.6,6.9-3.5l6.1-1.3c1.2-0.3,2.3-0.6,3.3-0.9c-8.4-2.1-16.9-4.2-25.6-6.1
			c-1.2,0.7-2.4,1.4-3.5,2.2c-4.4,3.2-6.5,8.5-6.5,16c0,8,2.4,13.7,7.2,17.2c4.8,3.5,10.4,5.2,16.8,5.2c3.2,0,6.9-0.2,11.1-0.7
			c4.2-0.4,8.1-1.6,11.9-3.6c3.6-1.8,6.6-4.7,9.2-8.7c2.4-3.7,3.7-8.7,3.8-15c-5.7-1.6-11.5-3.2-17.3-4.7L286.6,71.4L286.6,71.4z"/>
		<path class="st2" d="M300,100.5h21.6l10.5-18.1c-5.7-1.8-11.4-3.6-17.3-5.3L300,100.5z"/>
		<path class="st2" d="M347.2,100.5h21.3l-4.8-7.4c-8.3-3-16.8-5.9-25.6-8.7L347.2,100.5z"/>
	</g>
	<g>
		<path class="st1" d="M397.3,23.9c-3.1-0.7-6.4-0.9-10-0.8c0,1.3-0.9,2.3-2.1,2.6c0.5,7.4,2.7,13.4,5,17.7h0
			c0.6-2.1,1.4-4.3,2.2-6.5c1.6-4.3,3.5-8.1,5.4-11.4C397.5,25.1,397.3,24.5,397.3,23.9z"/>
		<path class="st1" d="M390.5,49c-0.3,1.2-0.6,2.3-0.8,3.3c1.8,0.8,3.7,1.3,5.7,1.5c-1.1-1.2-2.5-2.9-4-5
			C391.2,48.9,390.8,49,390.5,49z"/>
		<path class="st1" d="M413,33.2c-0.9-1.1-2-2.2-3.3-3.3c-2.2-1.9-4.7-3.3-7.4-4.5c-0.5,0.7-1.3,1.2-2.3,1.2c-0.3,0-0.5,0-0.8-0.1
			c-2.2,3.6-3.9,7.5-5.2,11c-0.8,2.2-1.5,4.4-2.2,6.4c0.6,0.4,1,0.9,1.2,1.6c6-0.3,11.5-2.2,16.3-5.8c1.1-0.8,2.1-1.7,3-2.6
			c-0.3-0.5-0.5-1-0.5-1.6C411.9,34.5,412.4,33.7,413,33.2z"/>
		<path class="st1" d="M402.3,22.2c0.3,0.4,0.5,1,0.5,1.5c3,1.2,5.7,2.8,8.1,4.9c1.5,1.3,2.8,2.7,3.9,4c0.4,0,0.8,0.1,1.2,0.3
			c2-2.7,2.9-4.7,2.9-4.8l0.3,0.1c-0.8-4.2-2.8-8.3-6.2-11.5c-0.7-0.7-1.5-1.3-2.2-1.9C407.5,16.5,404.7,19.1,402.3,22.2z"/>
		<path class="st1" d="M388.6,44.1c-2.2-4.2-3.7-8.5-4.5-13.1c-0.3-1.8-0.5-3.6-0.6-5.4c-0.8-0.3-1.4-1-1.6-1.9
			c-1.3,0.2-2.5,0.4-3.9,0.7c-2.5,6.3-1.9,13.4,1.7,19.3c2.8,0.8,5.5,1.4,8.1,1.7C388,44.8,388.3,44.4,388.6,44.1z"/>
		<path class="st1" d="M416.1,37.8c-0.4,0.3-0.9,0.4-1.5,0.4c-0.3,0-0.5,0-0.8-0.1c-1,1-2.2,2-3.5,3c-4.1,3.1-8.8,5-13.8,5.8
			c-1.2,0.2-2.4,0.3-3.6,0.3c-0.1,0.2-0.1,0.3-0.2,0.5c2,3,4,5.1,5.2,6.3c5.6,0,11.3-2.2,15.5-6.6c1.8-1.9,3.2-4,4.2-6.2l0,0
			C417.7,41.1,417.2,39.7,416.1,37.8z"/>
		<path class="st1" d="M419.5,30.8c-0.5,0.9-1.3,2.1-2.3,3.5c0.2,0.3,0.2,0.7,0.2,1.1c0,0.3,0,0.6-0.1,0.8c0.6,1,1,1.8,1.3,2.5
			C419.4,36.2,419.7,33.5,419.5,30.8z"/>
		<path class="st1" d="M386.8,21.4c0.9,0,1.7-0.1,2.6-0.1c2.9,0,5.7,0.3,8.3,0.8c0,0,0.1,0,0.2,0c0.5-0.7,1.3-1.1,2.2-1.1
			c0.3,0,0.5,0,0.8,0.1c2.6-3.3,5.4-5.7,8.3-7.4c-7.2-4.4-16.3-4.1-23.3,0.7c-0.4,2-0.6,4-0.7,5.8C385.9,20.5,386.4,20.9,386.8,21.4
			z"/>
		<path class="st1" d="M383.5,20.5c0.1-1.5,0.2-2.9,0.4-4.4c-0.5,0.4-0.9,0.8-1.3,1.2c-1.5,1.5-2.7,3.3-3.7,5.1
			c1.1-0.2,2.1-0.4,3.1-0.5C382.3,21.3,382.8,20.8,383.5,20.5z"/>
		<path class="st1" d="M387.8,47c-2.1-0.2-4.3-0.6-6.5-1.2c0.5,0.7,1.2,1.3,1.8,2c1.5,1.5,3.2,2.7,5.1,3.7c0.2-0.9,0.4-1.9,0.7-3
			C388.4,48.1,388,47.6,387.8,47z"/>
	</g>
</g>
</svg>
