<?xml version="1.0" encoding="utf-8"?>
<!-- Generator: Adobe Illustrator 24.3.0, SVG Export Plug-In . SVG Version: 6.00 Build 0)  -->
<svg version="1.1" xmlns="http://www.w3.org/2000/svg" xmlns:xlink="http://www.w3.org/1999/xlink" x="0px" y="0px"
	 viewBox="0 0 179.6 77.4" style="enable-background:new 0 0 179.6 77.4;" xml:space="preserve">
<style type="text/css">
	.st0{opacity:0.1;}
	.st1{fill:#03668E;}
	.st2{fill:#FF9600;}
	.st3{opacity:0.71;}
	.st4{fill:#FF2600;}
	.st5{fill:#FFFFFF;}
	.st6{fill:#444446;}
	.st7{fill:#023955;}
	.st8{fill:none;stroke:#03668E;stroke-width:4;stroke-miterlimit:10;}
	.st9{fill:#FFFFFF;stroke:#D9D9D9;stroke-miterlimit:10;}
	.st10{fill:#CEDC28;stroke:#CEDC28;stroke-miterlimit:10;}
	.st11{opacity:0.45;}
	.st12{fill:url(#SVGID_5_);}
	.st13{opacity:0.96;fill:url(#SVGID_6_);}
	.st14{fill:#F1F1F1;}
	.st15{fill:#BBBCBE;}
	.st16{opacity:0.85;fill:#03668E;}
	.st17{fill:#FFE600;}
	.st18{fill:#282828;}
</style>
<g id="Slider">
	<g>
		<defs>
			<rect id="SVGID_1_" x="-268.6" y="-76.4" width="1920" height="949.8"/>
		</defs>
		<clipPath id="SVGID_2_">
			<use xlink:href="#SVGID_1_"  style="overflow:visible;"/>
		</clipPath>
		<g style="clip-path:url(#SVGID_2_);">
			
				<image style="overflow:visible;" width="4800" height="3440" xlink:href="../../Web ai format/Home/Links/IMG_6194.JPG"  transform="matrix(0.4026 0 0 0.4026 -274.9639 -113.1617)">
			</image>
		</g>
	</g>
	<rect x="-268.6" y="-76.4" class="st0" width="1920" height="949.8"/>
	<g>
		
			<image style="overflow:visible;opacity:0.75;" width="1062" height="324" xlink:href="284762B8.png"  transform="matrix(0.24 0 0 0.24 84.0029 453.1954)">
		</image>
		<g>
			<g>
				<path class="st1" d="M200,515.8h-95.7c-2.9,0-5.2-2.3-5.2-5.2v-37c0-2.9,2.3-5.2,5.2-5.2H200c2.9,0,5.2,2.3,5.2,5.2v37
					C205.2,513.4,202.8,515.8,200,515.8z"/>
				
					<text transform="matrix(1 0 0 1 108.9589 499.2536)" class="st5" style="font-family:'SourceSansPro-Black'; font-size:19.0043px;">ABOUT US</text>
				<path class="st2" d="M318.4,515.8h-95.7c-2.9,0-5.2-2.3-5.2-5.2v-37c0-2.9,2.3-5.2,5.2-5.2h95.7c2.9,0,5.2,2.3,5.2,5.2v37
					C323.7,513.4,321.3,515.8,318.4,515.8z"/>
				
					<text transform="matrix(1 0 0 1 227.4501 499.2536)" class="st5" style="font-family:'SourceSansPro-Black'; font-size:19.0043px;">PROJECTS</text>
			</g>
		</g>
	</g>
	<g class="st3">
		<rect x="99" y="258.4" class="st4" width="466.9" height="70.2"/>
		<rect x="99" y="364.7" class="st4" width="883.5" height="70.2"/>
	</g>
	<text transform="matrix(1 0 0 1 103.4902 321.5534)"><tspan x="0" y="0" class="st5" style="font-family:'TwCenMT-Regular'; font-size:89.5089px;">CREATING A</tspan><tspan x="0" y="107.4" class="st5" style="font-family:'TwCenMT-Regular'; font-size:89.5089px;">BRIGHTER TOMORROW</tspan></text>
</g>
<g id="header">
	<rect x="-268.6" y="-76.4" class="st1" width="1920" height="62.8"/>
	<rect x="-268.6" y="-13.5" class="st5" width="1920" height="103.4"/>
	<g>
		<g>
			<g>
				<path class="st5" d="M1126.2-51.2c-0.7,0-1.3,0.6-1.3,1.3c0,0.7,0.6,1.3,1.3,1.3s1.3-0.6,1.3-1.3
					C1127.5-50.6,1126.9-51.2,1126.2-51.2z"/>
				<path class="st5" d="M1120.3-49.5c-3.1,0-5.6,2.5-5.6,5.6c0,3.1,2.5,5.6,5.6,5.6c3.1,0,5.6-2.5,5.6-5.6
					C1125.8-47,1123.3-49.5,1120.3-49.5z M1120.3-40.3c-2,0-3.6-1.6-3.6-3.6c0-2,1.6-3.6,3.6-3.6c2,0,3.6,1.6,3.6,3.6
					C1123.8-41.9,1122.2-40.3,1120.3-40.3z"/>
				<path class="st5" d="M1124.7-32.6h-9c-3.8,0-6.8-3.1-6.8-6.8v-9c0-3.8,3.1-6.8,6.8-6.8h9c3.8,0,6.8,3.1,6.8,6.8v9
					C1131.5-35.6,1128.4-32.6,1124.7-32.6z M1115.7-53.1c-2.6,0-4.7,2.1-4.7,4.7v9c0,2.6,2.1,4.7,4.7,4.7h9c2.6,0,4.7-2.1,4.7-4.7
					v-9c0-2.6-2.1-4.7-4.7-4.7H1115.7z"/>
			</g>
		</g>
		<path class="st5" d="M1071.5-42.5l0.6-4.1h-3.9v-2.7c0-1.1,0.5-2.2,2.3-2.2h1.8V-55c0,0-1.6-0.3-3.2-0.3c-3.2,0-5.4,2-5.4,5.5v3.1
			h-3.6v4.1h3.6v9.9h4.4v-9.9H1071.5z"/>
		<path class="st5" d="M1187.8-52.5c-0.9,0.4-1.8,0.6-2.8,0.8c0.4-0.1,1.1-0.9,1.4-1.2c0.4-0.5,0.7-1.1,0.9-1.7c0,0,0-0.1,0-0.1
			c-0.1,0-0.1,0-0.1,0c-1.1,0.6-2.1,1-3.3,1.3c-0.1,0-0.2,0-0.2-0.1c-0.1-0.1-0.2-0.2-0.3-0.3c-0.5-0.4-1-0.7-1.6-1
			c-0.8-0.3-1.6-0.4-2.5-0.4c-0.8,0.1-1.6,0.3-2.3,0.7c-0.7,0.4-1.4,0.9-1.9,1.5c-0.5,0.7-0.9,1.4-1.1,2.2c-0.2,0.8-0.2,1.6-0.1,2.4
			c0,0.1,0,0.2-0.1,0.1c-4.5-0.7-8.3-2.3-11.3-5.8c-0.1-0.2-0.2-0.2-0.3,0c-1.3,2-0.7,5.2,1,6.8c0.2,0.2,0.5,0.4,0.7,0.6
			c-0.1,0-1.2-0.1-2.2-0.6c-0.1-0.1-0.2,0-0.2,0.1c0,0.2,0,0.4,0,0.6c0.3,2,1.7,3.9,3.6,4.6c0.2,0.1,0.5,0.2,0.7,0.2
			c-0.4,0.1-0.9,0.2-2.1,0.1c-0.2,0-0.2,0-0.2,0.2c0.9,2.6,3,3.3,4.5,3.8c0.2,0,0.4,0,0.6,0.1c0,0,0,0,0,0c-0.5,0.8-2.3,1.3-3.1,1.6
			c-1.5,0.5-3.1,0.8-4.7,0.6c-0.3,0-0.3,0-0.4,0c-0.1,0,0,0.1,0.1,0.2c0.3,0.2,0.6,0.4,1,0.6c1,0.5,2,1,3.1,1.3
			c5.6,1.6,11.9,0.4,16.2-3.8c3.3-3.3,4.5-7.8,4.5-12.4c0-0.2,0.2-0.3,0.3-0.4c0.9-0.6,1.6-1.4,2.2-2.3c0.1-0.2,0.1-0.4,0.1-0.4
			c0,0,0,0,0,0C1187.9-52.6,1187.9-52.6,1187.8-52.5z"/>
		<path class="st5" d="M1239.6-46.9c0-2.8-2.3-5.1-5.1-5.1h-12.9c-2.8,0-5.1,2.3-5.1,5.1v6c0,2.8,2.3,5.1,5.1,5.1h12.9
			c2.8,0,5.1-2.3,5.1-5.1V-46.9z M1232-43.5l-5.8,2.9c-0.2,0.1-1,0-1-0.3v-5.9c0-0.3,0.8-0.4,1-0.3l5.5,3
			C1232-43.9,1232.2-43.6,1232-43.5z"/>
	</g>
	<g>
		<text transform="matrix(1 0 0 1 22.8225 -40.5194)" class="st5" style="font-family:'SourceSansPro-Bold'; font-size:17.6193px;">admin@shonirvor.org</text>
		
			<text transform="matrix(1 0 0 1 268.4621 -40.5194)" class="st5" style="font-family:'SourceSansPro-Bold'; font-size:17.6193px;">+880 1878 03 03 03</text>
		<g>
			<g>
				<g>
					<g>
						<path class="st5" d="M262.9-42.8l-2.1-1.1c-0.5-0.3-0.9-0.1-1.3,0.5c-1,1.3-1.4,1.6-2.6,0.9c-1.1-0.6-1.9-1.3-2.9-2.3
							c-1-1-1.7-1.8-2.3-2.9c-0.7-1.2-0.4-1.6,0.9-2.6c0.6-0.4,0.8-0.8,0.5-1.3l-1.1-2.1c-0.5-0.9-1.1-1-2.1-0.7
							c-1.3,0.4-2.6,2.4-2.5,3.3c0.2,2.7,1.5,5.8,4.3,8.6c2.8,2.8,6,4.1,8.6,4.3c0.9,0.1,2.8-1.2,3.3-2.6
							C263.9-41.7,263.8-42.3,262.9-42.8z"/>
						<path class="st5" d="M256.6-50.8c-0.4,0-0.8,0.4-0.8,0.8c0,0.4,0.4,0.8,0.8,0.8c0,0,0,0,0,0c0.5,0,0.9,0.2,1.2,0.5
							c0.3,0.3,0.5,0.8,0.5,1.3c0,0.4,0.3,0.8,0.8,0.8h0c0.4,0,0.8-0.4,0.8-0.8c0-0.9-0.3-1.8-1-2.4
							C258.4-50.4,257.5-50.8,256.6-50.8z M261.4-52.1c-1.3-1.3-3-2-4.7-1.9c-0.4,0-0.8,0.4-0.8,0.8c0,0.4,0.4,0.8,0.8,0.8
							c0,0,0,0,0,0c1.4,0,2.6,0.5,3.6,1.5c1,1,1.5,2.2,1.5,3.6c0,0.4,0.4,0.8,0.8,0.8h0c0.4,0,0.8-0.4,0.8-0.8
							C263.3-49.2,262.6-50.9,261.4-52.1z"/>
					</g>
				</g>
			</g>
		</g>
		<g>
			<path class="st5" d="M1.4-52.1l6.5,7.4C8.3-44.3,8.8-44,9.4-44c0.6,0,1.1-0.2,1.5-0.7l6.4-7.2c0.1-0.1,0.1-0.1,0.2-0.1
				c-0.3-0.1-0.6-0.2-0.9-0.2H2.2C1.9-52.3,1.6-52.2,1.4-52.1C1.4-52.1,1.4-52.1,1.4-52.1z"/>
			<path class="st5" d="M18.4-51.2c0,0.1-0.1,0.1-0.1,0.2l-6.4,7.2c-0.6,0.7-1.5,1.1-2.5,1.1c-1,0-1.9-0.4-2.5-1.1l-6.5-7.4
				c0,0,0,0,0,0C0.1-50.9,0-50.5,0-50v10c0,1.2,1,2.2,2.2,2.2h14.3c1.2,0,2.2-1,2.2-2.2v-10C18.7-50.5,18.6-50.9,18.4-51.2z"/>
		</g>
	</g>
	<g>
		<g>
			<path class="st6" d="M75.7,65C75.7,65,75.7,65,75.7,65l0.3,0.3c-0.2,0.2-0.4,0.4-0.7,0.5c-0.3,0.1-0.6,0.2-0.9,0.2
				c-0.3,0-0.6-0.1-0.9-0.2c-0.3-0.1-0.5-0.3-0.7-0.4c-0.2-0.2-0.3-0.4-0.4-0.7c-0.1-0.3-0.2-0.6-0.2-0.9c0-0.3,0.1-0.6,0.2-0.9
				c0.1-0.3,0.3-0.5,0.4-0.7c0.2-0.2,0.4-0.3,0.7-0.4c0.3-0.1,0.6-0.2,0.9-0.2c0.3,0,0.6,0,0.8,0.1c0.2,0.1,0.5,0.2,0.6,0.4
				l-0.2,0.3c0,0,0,0,0,0c0,0,0,0-0.1,0c0,0-0.1,0-0.1-0.1c-0.1,0-0.1-0.1-0.2-0.1c-0.1,0-0.2-0.1-0.3-0.1c-0.1,0-0.3-0.1-0.5-0.1
				c-0.2,0-0.4,0-0.6,0.1c-0.2,0.1-0.4,0.2-0.5,0.3c-0.1,0.1-0.2,0.3-0.3,0.5c-0.1,0.2-0.1,0.4-0.1,0.7c0,0.3,0,0.5,0.1,0.7
				c0.1,0.2,0.2,0.4,0.3,0.5c0.1,0.1,0.3,0.2,0.5,0.3c0.2,0.1,0.4,0.1,0.6,0.1c0.1,0,0.2,0,0.4,0c0.1,0,0.2,0,0.3-0.1
				c0.1,0,0.2-0.1,0.2-0.1c0.1,0,0.2-0.1,0.2-0.2C75.6,65,75.6,65,75.7,65z"/>
			<path class="st6" d="M79.9,65.8h-0.5c-0.1,0-0.2,0-0.2-0.1L78,64.2c0,0-0.1-0.1-0.1-0.1c0,0-0.1,0-0.2,0h-0.5v1.8h-0.6v-4.2h1.2
				c0.3,0,0.5,0,0.7,0.1c0.2,0.1,0.4,0.1,0.5,0.2s0.2,0.2,0.3,0.4c0.1,0.1,0.1,0.3,0.1,0.5c0,0.1,0,0.3-0.1,0.4
				c0,0.1-0.1,0.2-0.2,0.3c-0.1,0.1-0.2,0.2-0.3,0.3c-0.1,0.1-0.3,0.1-0.5,0.2c0.1,0,0.1,0.1,0.2,0.2L79.9,65.8z M77.9,63.7
				c0.2,0,0.3,0,0.5-0.1c0.1,0,0.2-0.1,0.3-0.2c0.1-0.1,0.2-0.2,0.2-0.3c0-0.1,0.1-0.2,0.1-0.3c0-0.2-0.1-0.4-0.3-0.6
				c-0.2-0.1-0.4-0.2-0.8-0.2h-0.7v1.6H77.9z"/>
			<path class="st6" d="M83.3,65.4l0,0.5h-2.7v-4.2h2.7v0.5h-2.1v1.4h1.7v0.4h-1.7v1.4H83.3z"/>
			<path class="st6" d="M87.7,65.8h-0.5c-0.1,0-0.1,0-0.1,0c0,0-0.1-0.1-0.1-0.1l-0.4-1h-2l-0.4,1c0,0,0,0.1-0.1,0.1
				c0,0-0.1,0-0.1,0h-0.5l1.8-4.2h0.6L87.7,65.8z M86.4,64.3l-0.7-1.7c0-0.1,0-0.1-0.1-0.2c0-0.1,0-0.1-0.1-0.2
				c0,0.2-0.1,0.3-0.1,0.4l-0.7,1.7H86.4z"/>
			<path class="st6" d="M90.8,62.1h-1.4v3.7h-0.6v-3.7h-1.4v-0.5h3.5V62.1z"/>
			<path class="st6" d="M92.1,65.8h-0.6v-4.2h0.6V65.8z"/>
			<path class="st6" d="M96.8,61.6v4.2h-0.3c0,0-0.1,0-0.1,0c0,0-0.1,0-0.1-0.1l-2.6-3.2c0,0,0,0.1,0,0.1c0,0,0,0.1,0,0.1v3h-0.5
				v-4.2h0.3c0,0,0,0,0.1,0c0,0,0,0,0,0c0,0,0,0,0,0s0,0,0,0l2.6,3.2c0-0.1,0-0.1,0-0.1c0,0,0-0.1,0-0.1v-3H96.8z"/>
			<path class="st6" d="M101.5,63.8v1.6c-0.2,0.2-0.5,0.3-0.7,0.3c-0.3,0.1-0.5,0.1-0.8,0.1c-0.4,0-0.7-0.1-1-0.2
				c-0.3-0.1-0.5-0.3-0.7-0.4c-0.2-0.2-0.4-0.4-0.5-0.7c-0.1-0.3-0.2-0.6-0.2-0.9c0-0.3,0.1-0.6,0.2-0.9c0.1-0.3,0.3-0.5,0.5-0.7
				c0.2-0.2,0.4-0.3,0.7-0.4c0.3-0.1,0.6-0.2,0.9-0.2c0.2,0,0.3,0,0.5,0c0.1,0,0.3,0.1,0.4,0.1c0.1,0,0.2,0.1,0.4,0.2
				c0.1,0.1,0.2,0.1,0.3,0.2l-0.2,0.3c0,0-0.1,0.1-0.1,0.1s-0.1,0-0.1,0c0,0-0.1-0.1-0.2-0.1c-0.1,0-0.1-0.1-0.2-0.1
				c-0.1,0-0.2-0.1-0.3-0.1c-0.1,0-0.3,0-0.4,0c-0.2,0-0.5,0-0.7,0.1c-0.2,0.1-0.4,0.2-0.5,0.3c-0.1,0.1-0.3,0.3-0.3,0.5
				c-0.1,0.2-0.1,0.4-0.1,0.7c0,0.3,0,0.5,0.1,0.7c0.1,0.2,0.2,0.4,0.3,0.5c0.1,0.1,0.3,0.3,0.5,0.3c0.2,0.1,0.4,0.1,0.7,0.1
				c0.2,0,0.4,0,0.5-0.1c0.2,0,0.3-0.1,0.5-0.2v-0.9h-0.7c0,0-0.1,0-0.1,0c0,0,0,0,0-0.1v-0.3H101.5z"/>
			<path class="st6" d="M107.3,65.8h-0.5c-0.1,0-0.1,0-0.1,0c0,0-0.1-0.1-0.1-0.1l-0.4-1h-2l-0.4,1c0,0,0,0.1-0.1,0.1
				c0,0-0.1,0-0.1,0h-0.5l1.8-4.2h0.6L107.3,65.8z M106.1,64.3l-0.7-1.7c0-0.1,0-0.1-0.1-0.2c0-0.1,0-0.1-0.1-0.2
				c0,0.2-0.1,0.3-0.1,0.4l-0.7,1.7H106.1z"/>
			<path class="st6" d="M110.7,61.6c0.3,0,0.5,0,0.7,0.1c0.2,0.1,0.4,0.1,0.5,0.2c0.1,0.1,0.2,0.2,0.3,0.3c0.1,0.1,0.1,0.3,0.1,0.5
				c0,0.1,0,0.2-0.1,0.3c0,0.1-0.1,0.2-0.2,0.3c-0.1,0.1-0.2,0.2-0.3,0.2c-0.1,0.1-0.2,0.1-0.4,0.2c0.3,0.1,0.6,0.2,0.7,0.3
				c0.2,0.2,0.2,0.4,0.2,0.6c0,0.2,0,0.3-0.1,0.5s-0.2,0.3-0.3,0.4c-0.1,0.1-0.3,0.2-0.5,0.2c-0.2,0.1-0.4,0.1-0.7,0.1h-1.6v-4.2
				H110.7z M109.9,62.1v1.4h0.8c0.2,0,0.3,0,0.4-0.1c0.1,0,0.2-0.1,0.3-0.1c0.1-0.1,0.1-0.1,0.2-0.2c0-0.1,0.1-0.2,0.1-0.3
				c0-0.2-0.1-0.4-0.2-0.5c-0.2-0.1-0.4-0.2-0.7-0.2H109.9z M110.8,65.4c0.2,0,0.3,0,0.4-0.1c0.1,0,0.2-0.1,0.3-0.2
				c0.1-0.1,0.1-0.1,0.2-0.2c0-0.1,0.1-0.2,0.1-0.3c0-0.2-0.1-0.4-0.2-0.5c-0.2-0.1-0.4-0.2-0.7-0.2h-1v1.5H110.8z"/>
			<path class="st6" d="M116.5,65.8H116c-0.1,0-0.2,0-0.2-0.1l-1.1-1.5c0,0-0.1-0.1-0.1-0.1c0,0-0.1,0-0.2,0h-0.5v1.8h-0.6v-4.2h1.2
				c0.3,0,0.5,0,0.7,0.1c0.2,0.1,0.4,0.1,0.5,0.2s0.2,0.2,0.3,0.4c0.1,0.1,0.1,0.3,0.1,0.5c0,0.1,0,0.3-0.1,0.4
				c0,0.1-0.1,0.2-0.2,0.3c-0.1,0.1-0.2,0.2-0.3,0.3c-0.1,0.1-0.3,0.1-0.5,0.2c0.1,0,0.1,0.1,0.2,0.2L116.5,65.8z M114.5,63.7
				c0.2,0,0.3,0,0.5-0.1c0.1,0,0.2-0.1,0.3-0.2c0.1-0.1,0.2-0.2,0.2-0.3c0-0.1,0.1-0.2,0.1-0.3c0-0.2-0.1-0.4-0.3-0.6
				c-0.2-0.1-0.4-0.2-0.8-0.2h-0.7v1.6H114.5z"/>
			<path class="st6" d="M117.7,65.8h-0.6v-4.2h0.6V65.8z"/>
			<path class="st6" d="M122.4,63.8v1.6c-0.2,0.2-0.5,0.3-0.7,0.3c-0.3,0.1-0.5,0.1-0.8,0.1c-0.4,0-0.7-0.1-1-0.2
				c-0.3-0.1-0.5-0.3-0.7-0.4c-0.2-0.2-0.4-0.4-0.5-0.7c-0.1-0.3-0.2-0.6-0.2-0.9c0-0.3,0.1-0.6,0.2-0.9c0.1-0.3,0.3-0.5,0.5-0.7
				c0.2-0.2,0.4-0.3,0.7-0.4c0.3-0.1,0.6-0.2,0.9-0.2c0.2,0,0.3,0,0.5,0c0.1,0,0.3,0.1,0.4,0.1c0.1,0,0.2,0.1,0.4,0.2
				c0.1,0.1,0.2,0.1,0.3,0.2l-0.2,0.3c0,0-0.1,0.1-0.1,0.1s-0.1,0-0.1,0c0,0-0.1-0.1-0.2-0.1c-0.1,0-0.1-0.1-0.2-0.1
				c-0.1,0-0.2-0.1-0.3-0.1c-0.1,0-0.3,0-0.4,0c-0.2,0-0.5,0-0.7,0.1c-0.2,0.1-0.4,0.2-0.5,0.3c-0.1,0.1-0.3,0.3-0.3,0.5
				c-0.1,0.2-0.1,0.4-0.1,0.7c0,0.3,0,0.5,0.1,0.7c0.1,0.2,0.2,0.4,0.3,0.5c0.1,0.1,0.3,0.3,0.5,0.3c0.2,0.1,0.4,0.1,0.7,0.1
				c0.2,0,0.4,0,0.5-0.1c0.2,0,0.3-0.1,0.5-0.2v-0.9h-0.7c0,0-0.1,0-0.1,0c0,0,0,0,0-0.1v-0.3H122.4z"/>
			<path class="st6" d="M126.9,61.6v4.2h-0.6v-1.9h-2.4v1.9h-0.6v-4.2h0.6v1.9h2.4v-1.9H126.9z"/>
			<path class="st6" d="M131,62.1h-1.4v3.7H129v-3.7h-1.4v-0.5h3.5V62.1z"/>
			<path class="st6" d="M134.4,65.4l0,0.5h-2.7v-4.2h2.7v0.5h-2.1v1.4h1.7v0.4h-1.7v1.4H134.4z"/>
			<path class="st6" d="M138.5,65.8H138c-0.1,0-0.2,0-0.2-0.1l-1.1-1.5c0,0-0.1-0.1-0.1-0.1c0,0-0.1,0-0.2,0h-0.5v1.8h-0.6v-4.2h1.2
				c0.3,0,0.5,0,0.7,0.1c0.2,0.1,0.4,0.1,0.5,0.2c0.1,0.1,0.2,0.2,0.3,0.4c0.1,0.1,0.1,0.3,0.1,0.5c0,0.1,0,0.3-0.1,0.4
				c0,0.1-0.1,0.2-0.2,0.3c-0.1,0.1-0.2,0.2-0.3,0.3c-0.1,0.1-0.3,0.1-0.5,0.2c0.1,0,0.1,0.1,0.2,0.2L138.5,65.8z M136.5,63.7
				c0.2,0,0.3,0,0.5-0.1c0.1,0,0.2-0.1,0.3-0.2c0.1-0.1,0.2-0.2,0.2-0.3c0-0.1,0.1-0.2,0.1-0.3c0-0.2-0.1-0.4-0.3-0.6
				c-0.2-0.1-0.4-0.2-0.8-0.2h-0.7v1.6H136.5z"/>
			<path class="st6" d="M143.5,62.1H142v3.7h-0.6v-3.7H140v-0.5h3.5V62.1z"/>
			<path class="st6" d="M148,63.7c0,0.3-0.1,0.6-0.2,0.9c-0.1,0.3-0.3,0.5-0.4,0.7c-0.2,0.2-0.4,0.3-0.7,0.4
				c-0.3,0.1-0.6,0.2-0.9,0.2s-0.6-0.1-0.9-0.2c-0.3-0.1-0.5-0.3-0.7-0.4c-0.2-0.2-0.3-0.4-0.4-0.7c-0.1-0.3-0.2-0.6-0.2-0.9
				c0-0.3,0.1-0.6,0.2-0.9c0.1-0.3,0.3-0.5,0.4-0.7c0.2-0.2,0.4-0.3,0.7-0.4c0.3-0.1,0.6-0.2,0.9-0.2s0.6,0.1,0.9,0.2
				c0.3,0.1,0.5,0.3,0.7,0.4c0.2,0.2,0.3,0.4,0.4,0.7C147.9,63.1,148,63.4,148,63.7z M147.4,63.7c0-0.3,0-0.5-0.1-0.7
				s-0.2-0.4-0.3-0.5c-0.1-0.1-0.3-0.3-0.5-0.3c-0.2-0.1-0.4-0.1-0.6-0.1c-0.2,0-0.5,0-0.6,0.1c-0.2,0.1-0.4,0.2-0.5,0.3
				c-0.1,0.1-0.2,0.3-0.3,0.5c-0.1,0.2-0.1,0.4-0.1,0.7c0,0.3,0,0.5,0.1,0.7c0.1,0.2,0.2,0.4,0.3,0.5c0.1,0.1,0.3,0.2,0.5,0.3
				c0.2,0.1,0.4,0.1,0.6,0.1c0.2,0,0.5,0,0.6-0.1c0.2-0.1,0.4-0.2,0.5-0.3s0.2-0.3,0.3-0.5C147.3,64.2,147.4,64,147.4,63.7z"/>
			<path class="st6" d="M153.4,61.6v4.2h-0.5v-3.1c0,0,0-0.1,0-0.1c0,0,0-0.1,0-0.1l-1.5,2.6c0,0.1-0.1,0.1-0.2,0.1h-0.1
				c-0.1,0-0.2,0-0.2-0.1l-1.5-2.6c0,0.1,0,0.2,0,0.3v3.1h-0.5v-4.2h0.4c0.1,0,0.1,0,0.1,0c0,0,0.1,0,0.1,0.1l1.5,2.6
				c0,0,0,0.1,0.1,0.1c0,0.1,0,0.1,0.1,0.2c0-0.1,0-0.1,0.1-0.2c0-0.1,0-0.1,0.1-0.1l1.5-2.6c0,0,0.1-0.1,0.1-0.1c0,0,0.1,0,0.1,0
				H153.4z"/>
			<path class="st6" d="M158.6,63.7c0,0.3-0.1,0.6-0.2,0.9c-0.1,0.3-0.3,0.5-0.4,0.7c-0.2,0.2-0.4,0.3-0.7,0.4
				c-0.3,0.1-0.6,0.2-0.9,0.2s-0.6-0.1-0.9-0.2c-0.3-0.1-0.5-0.3-0.7-0.4c-0.2-0.2-0.3-0.4-0.4-0.7s-0.2-0.6-0.2-0.9
				c0-0.3,0.1-0.6,0.2-0.9s0.3-0.5,0.4-0.7c0.2-0.2,0.4-0.3,0.7-0.4c0.3-0.1,0.6-0.2,0.9-0.2s0.6,0.1,0.9,0.2
				c0.3,0.1,0.5,0.3,0.7,0.4c0.2,0.2,0.3,0.4,0.4,0.7C158.6,63.1,158.6,63.4,158.6,63.7z M158,63.7c0-0.3,0-0.5-0.1-0.7
				s-0.2-0.4-0.3-0.5c-0.1-0.1-0.3-0.3-0.5-0.3c-0.2-0.1-0.4-0.1-0.6-0.1c-0.2,0-0.5,0-0.6,0.1c-0.2,0.1-0.4,0.2-0.5,0.3
				c-0.1,0.1-0.2,0.3-0.3,0.5c-0.1,0.2-0.1,0.4-0.1,0.7c0,0.3,0,0.5,0.1,0.7c0.1,0.2,0.2,0.4,0.3,0.5c0.1,0.1,0.3,0.2,0.5,0.3
				c0.2,0.1,0.4,0.1,0.6,0.1c0.2,0,0.5,0,0.6-0.1c0.2-0.1,0.4-0.2,0.5-0.3c0.1-0.1,0.2-0.3,0.3-0.5C158,64.2,158,64,158,63.7z"/>
			<path class="st6" d="M162.7,65.8h-0.5c-0.1,0-0.2,0-0.2-0.1l-1.1-1.5c0,0-0.1-0.1-0.1-0.1c0,0-0.1,0-0.2,0h-0.5v1.8h-0.6v-4.2
				h1.2c0.3,0,0.5,0,0.7,0.1c0.2,0.1,0.4,0.1,0.5,0.2s0.2,0.2,0.3,0.4c0.1,0.1,0.1,0.3,0.1,0.5c0,0.1,0,0.3-0.1,0.4
				c0,0.1-0.1,0.2-0.2,0.3c-0.1,0.1-0.2,0.2-0.3,0.3c-0.1,0.1-0.3,0.1-0.5,0.2c0.1,0,0.1,0.1,0.2,0.2L162.7,65.8z M160.7,63.7
				c0.2,0,0.3,0,0.5-0.1c0.1,0,0.2-0.1,0.3-0.2c0.1-0.1,0.2-0.2,0.2-0.3c0-0.1,0.1-0.2,0.1-0.3c0-0.2-0.1-0.4-0.3-0.6
				c-0.2-0.1-0.4-0.2-0.8-0.2h-0.7v1.6H160.7z"/>
			<path class="st6" d="M166.6,65.8h-0.5c-0.1,0-0.2,0-0.2-0.1l-1.1-1.5c0,0-0.1-0.1-0.1-0.1c0,0-0.1,0-0.2,0h-0.5v1.8h-0.6v-4.2
				h1.2c0.3,0,0.5,0,0.7,0.1c0.2,0.1,0.4,0.1,0.5,0.2c0.1,0.1,0.2,0.2,0.3,0.4c0.1,0.1,0.1,0.3,0.1,0.5c0,0.1,0,0.3-0.1,0.4
				c0,0.1-0.1,0.2-0.2,0.3c-0.1,0.1-0.2,0.2-0.3,0.3c-0.1,0.1-0.3,0.1-0.5,0.2c0.1,0,0.1,0.1,0.2,0.2L166.6,65.8z M164.6,63.7
				c0.2,0,0.3,0,0.5-0.1c0.1,0,0.2-0.1,0.3-0.2c0.1-0.1,0.2-0.2,0.2-0.3c0-0.1,0.1-0.2,0.1-0.3c0-0.2-0.1-0.4-0.3-0.6
				c-0.2-0.1-0.4-0.2-0.8-0.2h-0.7v1.6H164.6z"/>
			<path class="st6" d="M171.2,63.7c0,0.3-0.1,0.6-0.2,0.9c-0.1,0.3-0.3,0.5-0.4,0.7c-0.2,0.2-0.4,0.3-0.7,0.4
				c-0.3,0.1-0.6,0.2-0.9,0.2s-0.6-0.1-0.9-0.2c-0.3-0.1-0.5-0.3-0.7-0.4c-0.2-0.2-0.3-0.4-0.4-0.7c-0.1-0.3-0.2-0.6-0.2-0.9
				c0-0.3,0.1-0.6,0.2-0.9c0.1-0.3,0.3-0.5,0.4-0.7c0.2-0.2,0.4-0.3,0.7-0.4c0.3-0.1,0.6-0.2,0.9-0.2s0.6,0.1,0.9,0.2
				c0.3,0.1,0.5,0.3,0.7,0.4c0.2,0.2,0.3,0.4,0.4,0.7C171.2,63.1,171.2,63.4,171.2,63.7z M170.6,63.7c0-0.3,0-0.5-0.1-0.7
				s-0.2-0.4-0.3-0.5c-0.1-0.1-0.3-0.3-0.5-0.3c-0.2-0.1-0.4-0.1-0.6-0.1c-0.2,0-0.5,0-0.6,0.1c-0.2,0.1-0.4,0.2-0.5,0.3
				c-0.1,0.1-0.2,0.3-0.3,0.5c-0.1,0.2-0.1,0.4-0.1,0.7c0,0.3,0,0.5,0.1,0.7c0.1,0.2,0.2,0.4,0.3,0.5c0.1,0.1,0.3,0.2,0.5,0.3
				c0.2,0.1,0.4,0.1,0.6,0.1c0.2,0,0.5,0,0.6-0.1c0.2-0.1,0.4-0.2,0.5-0.3s0.2-0.3,0.3-0.5C170.6,64.2,170.6,64,170.6,63.7z"/>
			<path class="st6" d="M177.7,61.6l-1.4,4.2h-0.5l-1.1-3.2c0,0,0-0.1,0-0.1s0-0.1,0-0.1c0,0,0,0.1,0,0.1c0,0,0,0.1,0,0.1l-1.1,3.2
				h-0.5l-1.4-4.2h0.5c0.1,0,0.1,0,0.1,0c0,0,0.1,0.1,0.1,0.1l0.9,2.9c0,0.1,0,0.1,0,0.2c0,0.1,0,0.1,0,0.2c0-0.1,0-0.1,0-0.2
				c0-0.1,0-0.1,0.1-0.2l1-2.9c0,0,0-0.1,0.1-0.1c0,0,0.1,0,0.1,0h0.2c0.1,0,0.1,0,0.1,0c0,0,0.1,0.1,0.1,0.1l1,2.9
				c0,0.1,0,0.1,0.1,0.2c0,0.1,0,0.1,0,0.2c0-0.1,0-0.1,0-0.2c0-0.1,0-0.1,0-0.2l0.9-2.9c0,0,0-0.1,0.1-0.1c0,0,0.1,0,0.1,0H177.7z"
				/>
		</g>
		<g>
			<path class="st7" d="M24.1,45.5c-0.1,0.1-0.1,0.2-0.2,0.3c-0.1,0.1-0.2,0.1-0.3,0.1c-0.1,0-0.3,0-0.4-0.1
				c-0.1-0.1-0.3-0.2-0.5-0.3c-0.2-0.1-0.4-0.2-0.7-0.3c-0.3-0.1-0.6-0.1-0.9-0.1c-0.3,0-0.6,0-0.8,0.1c-0.2,0.1-0.4,0.2-0.6,0.3
				c-0.2,0.1-0.3,0.3-0.4,0.5c-0.1,0.2-0.1,0.4-0.1,0.7c0,0.3,0.1,0.6,0.2,0.8c0.2,0.2,0.4,0.4,0.6,0.5c0.3,0.1,0.6,0.3,0.9,0.4
				c0.3,0.1,0.7,0.2,1.1,0.4c0.4,0.1,0.7,0.3,1.1,0.5c0.3,0.2,0.6,0.4,0.9,0.7c0.3,0.3,0.5,0.6,0.6,1c0.2,0.4,0.2,0.9,0.2,1.4
				c0,0.6-0.1,1.2-0.3,1.7c-0.2,0.5-0.5,1-0.8,1.4c-0.4,0.4-0.8,0.7-1.4,0.9c-0.5,0.2-1.1,0.3-1.8,0.3c-0.4,0-0.8,0-1.2-0.1
				c-0.4-0.1-0.8-0.2-1.1-0.4c-0.4-0.2-0.7-0.3-1-0.6c-0.3-0.2-0.6-0.5-0.8-0.7l0.7-1.2c0.1-0.1,0.1-0.2,0.2-0.2
				c0.1-0.1,0.2-0.1,0.3-0.1c0.1,0,0.3,0.1,0.5,0.2c0.2,0.1,0.4,0.3,0.6,0.4c0.2,0.2,0.5,0.3,0.8,0.4c0.3,0.1,0.7,0.2,1.1,0.2
				c0.7,0,1.2-0.2,1.5-0.5c0.4-0.3,0.5-0.8,0.5-1.4c0-0.4-0.1-0.6-0.2-0.9c-0.2-0.2-0.4-0.4-0.6-0.6c-0.3-0.2-0.6-0.3-0.9-0.4
				c-0.3-0.1-0.7-0.2-1-0.3s-0.7-0.3-1-0.4c-0.3-0.2-0.6-0.4-0.9-0.7s-0.5-0.6-0.6-1c-0.2-0.4-0.2-0.9-0.2-1.5c0-0.5,0.1-1,0.3-1.4
				c0.2-0.5,0.4-0.9,0.8-1.2c0.3-0.4,0.8-0.6,1.3-0.9c0.5-0.2,1.1-0.3,1.7-0.3c0.7,0,1.4,0.1,2,0.4c0.6,0.2,1.1,0.6,1.6,1L24.1,45.5
				z"/>
			<path class="st7" d="M37.3,43.1v13.3H35v-5.8h-5.8v5.8h-2.3V43.1h2.3v5.7H35v-5.7H37.3z"/>
			<path class="st7" d="M51.9,49.7c0,1-0.2,1.9-0.5,2.7c-0.3,0.8-0.7,1.6-1.3,2.2c-0.5,0.6-1.2,1.1-2,1.4c-0.8,0.3-1.6,0.5-2.6,0.5
				c-0.9,0-1.8-0.2-2.6-0.5c-0.8-0.3-1.4-0.8-2-1.4c-0.6-0.6-1-1.3-1.3-2.2c-0.3-0.8-0.5-1.7-0.5-2.7c0-1,0.2-1.9,0.5-2.7
				c0.3-0.8,0.7-1.6,1.3-2.2c0.6-0.6,1.2-1.1,2-1.4c0.8-0.3,1.6-0.5,2.6-0.5c0.6,0,1.2,0.1,1.8,0.2c0.6,0.2,1.1,0.4,1.5,0.7
				c0.5,0.3,0.9,0.6,1.2,1c0.4,0.4,0.7,0.9,0.9,1.4c0.3,0.5,0.5,1.1,0.6,1.6C51.9,48.5,51.9,49.1,51.9,49.7z M49.6,49.7
				c0-0.7-0.1-1.4-0.3-2c-0.2-0.6-0.4-1.1-0.8-1.5c-0.3-0.4-0.7-0.7-1.2-0.9c-0.5-0.2-1-0.3-1.6-0.3c-0.6,0-1.2,0.1-1.6,0.3
				c-0.5,0.2-0.9,0.5-1.2,0.9c-0.3,0.4-0.6,0.9-0.8,1.5c-0.2,0.6-0.3,1.2-0.3,2c0,0.7,0.1,1.4,0.3,2c0.2,0.6,0.4,1.1,0.8,1.5
				c0.3,0.4,0.8,0.7,1.2,0.9c0.5,0.2,1,0.3,1.6,0.3c0.6,0,1.2-0.1,1.6-0.3c0.5-0.2,0.9-0.5,1.2-0.9c0.3-0.4,0.6-0.9,0.8-1.5
				C49.5,51.1,49.6,50.5,49.6,49.7z"/>
			<path class="st7" d="M64.5,43.1v13.3h-1.2c-0.2,0-0.3,0-0.5-0.1s-0.2-0.2-0.4-0.3L56,47.1c0,0.4,0.1,0.8,0.1,1.1v8.2h-2V43.1h1.2
				c0.1,0,0.2,0,0.3,0c0.1,0,0.1,0,0.2,0.1c0.1,0,0.1,0.1,0.2,0.1c0.1,0.1,0.1,0.1,0.2,0.2l6.5,8.9c0-0.2,0-0.4,0-0.6
				c0-0.2,0-0.4,0-0.6v-8.1H64.5z"/>
			<path class="st7" d="M69.5,56.4h-2.3V43.1h2.3V56.4z"/>
			<path class="st7" d="M82,56.4h-2.1c-0.4,0-0.7-0.2-0.9-0.5l-2.6-4.3c-0.1-0.2-0.2-0.3-0.3-0.3c-0.1-0.1-0.3-0.1-0.5-0.1h-1v5.2
				h-2.3V43.1h3.8c0.8,0,1.6,0.1,2.2,0.3c0.6,0.2,1.1,0.5,1.5,0.8c0.4,0.3,0.7,0.7,0.9,1.2c0.2,0.5,0.3,1,0.3,1.6
				c0,0.4-0.1,0.9-0.2,1.3c-0.1,0.4-0.3,0.8-0.5,1.1c-0.2,0.3-0.5,0.6-0.9,0.9c-0.3,0.2-0.7,0.4-1.2,0.6c0.1,0.1,0.3,0.2,0.4,0.3
				c0.1,0.1,0.2,0.3,0.3,0.4L82,56.4z M76.1,49.4c0.4,0,0.8-0.1,1.1-0.2c0.3-0.1,0.6-0.3,0.8-0.5s0.4-0.5,0.5-0.7
				c0.1-0.3,0.2-0.6,0.2-0.9c0-0.7-0.2-1.2-0.6-1.6c-0.4-0.4-1-0.5-1.9-0.5h-1.5v4.4H76.1z"/>
			<path class="st7" d="M93.6,43.1l-5,13.3h-2.1l-5-13.3h1.9c0.2,0,0.4,0.1,0.5,0.2c0.1,0.1,0.2,0.2,0.3,0.4l2.9,8.1
				c0.1,0.3,0.2,0.6,0.3,0.9c0.1,0.3,0.2,0.6,0.3,1c0.1-0.3,0.1-0.7,0.2-1c0.1-0.3,0.2-0.6,0.3-0.9l2.9-8.1c0-0.1,0.1-0.3,0.3-0.4
				c0.1-0.1,0.3-0.2,0.5-0.2H93.6z"/>
			<path class="st7" d="M106.3,49.7c0,1-0.2,1.9-0.5,2.7c-0.3,0.8-0.7,1.6-1.3,2.2c-0.5,0.6-1.2,1.1-2,1.4c-0.8,0.3-1.6,0.5-2.6,0.5
				c-0.9,0-1.8-0.2-2.6-0.5c-0.8-0.3-1.4-0.8-2-1.4c-0.6-0.6-1-1.3-1.3-2.2c-0.3-0.8-0.5-1.7-0.5-2.7c0-1,0.2-1.9,0.5-2.7
				c0.3-0.8,0.7-1.6,1.3-2.2c0.6-0.6,1.2-1.1,2-1.4c0.8-0.3,1.6-0.5,2.6-0.5c0.6,0,1.2,0.1,1.8,0.2c0.6,0.2,1.1,0.4,1.5,0.7
				c0.5,0.3,0.9,0.6,1.2,1c0.4,0.4,0.7,0.9,0.9,1.4c0.3,0.5,0.5,1.1,0.6,1.6C106.3,48.5,106.3,49.1,106.3,49.7z M104,49.7
				c0-0.7-0.1-1.4-0.3-2c-0.2-0.6-0.4-1.1-0.8-1.5s-0.7-0.7-1.2-0.9c-0.5-0.2-1-0.3-1.6-0.3c-0.6,0-1.2,0.1-1.6,0.3
				c-0.5,0.2-0.9,0.5-1.2,0.9c-0.3,0.4-0.6,0.9-0.8,1.5c-0.2,0.6-0.3,1.2-0.3,2c0,0.7,0.1,1.4,0.3,2c0.2,0.6,0.4,1.1,0.8,1.5
				c0.3,0.4,0.8,0.7,1.2,0.9c0.5,0.2,1,0.3,1.6,0.3c0.6,0,1.2-0.1,1.6-0.3c0.5-0.2,0.9-0.5,1.2-0.9c0.3-0.4,0.6-0.9,0.8-1.5
				C103.9,51.1,104,50.5,104,49.7z"/>
			<path class="st7" d="M118.1,56.4H116c-0.4,0-0.7-0.2-0.9-0.5l-2.6-4.3c-0.1-0.2-0.2-0.3-0.3-0.3c-0.1-0.1-0.3-0.1-0.5-0.1h-1v5.2
				h-2.3V43.1h3.8c0.8,0,1.6,0.1,2.2,0.3c0.6,0.2,1.1,0.5,1.5,0.8s0.7,0.7,0.9,1.2c0.2,0.5,0.3,1,0.3,1.6c0,0.4-0.1,0.9-0.2,1.3
				c-0.1,0.4-0.3,0.8-0.5,1.1c-0.2,0.3-0.5,0.6-0.9,0.9c-0.3,0.2-0.7,0.4-1.2,0.6c0.1,0.1,0.3,0.2,0.4,0.3c0.1,0.1,0.2,0.3,0.3,0.4
				L118.1,56.4z M112.1,49.4c0.4,0,0.8-0.1,1.1-0.2c0.3-0.1,0.6-0.3,0.8-0.5s0.4-0.5,0.5-0.7c0.1-0.3,0.2-0.6,0.2-0.9
				c0-0.7-0.2-1.2-0.6-1.6c-0.4-0.4-1-0.5-1.9-0.5h-1.5v4.4H112.1z"/>
			<path class="st7" d="M130.2,45.5c-0.1,0.1-0.1,0.2-0.2,0.3c-0.1,0.1-0.2,0.1-0.3,0.1c-0.1,0-0.3,0-0.4-0.1
				c-0.1-0.1-0.3-0.2-0.5-0.3c-0.2-0.1-0.4-0.2-0.7-0.3c-0.3-0.1-0.6-0.1-0.9-0.1c-0.3,0-0.6,0-0.8,0.1c-0.2,0.1-0.4,0.2-0.6,0.3
				c-0.2,0.1-0.3,0.3-0.4,0.5c-0.1,0.2-0.1,0.4-0.1,0.7c0,0.3,0.1,0.6,0.2,0.8c0.2,0.2,0.4,0.4,0.6,0.5c0.3,0.1,0.6,0.3,0.9,0.4
				c0.3,0.1,0.7,0.2,1.1,0.4c0.4,0.1,0.7,0.3,1.1,0.5c0.3,0.2,0.6,0.4,0.9,0.7c0.3,0.3,0.5,0.6,0.6,1c0.2,0.4,0.2,0.9,0.2,1.4
				c0,0.6-0.1,1.2-0.3,1.7c-0.2,0.5-0.5,1-0.8,1.4c-0.4,0.4-0.8,0.7-1.4,0.9c-0.5,0.2-1.1,0.3-1.8,0.3c-0.4,0-0.8,0-1.2-0.1
				c-0.4-0.1-0.8-0.2-1.1-0.4c-0.4-0.2-0.7-0.3-1-0.6s-0.6-0.5-0.8-0.7l0.7-1.2c0.1-0.1,0.1-0.2,0.2-0.2c0.1-0.1,0.2-0.1,0.3-0.1
				c0.1,0,0.3,0.1,0.5,0.2c0.2,0.1,0.4,0.3,0.6,0.4c0.2,0.2,0.5,0.3,0.8,0.4c0.3,0.1,0.7,0.2,1.1,0.2c0.7,0,1.2-0.2,1.5-0.5
				c0.4-0.3,0.5-0.8,0.5-1.4c0-0.4-0.1-0.6-0.2-0.9c-0.2-0.2-0.4-0.4-0.6-0.6c-0.3-0.2-0.6-0.3-0.9-0.4c-0.3-0.1-0.7-0.2-1-0.3
				s-0.7-0.3-1-0.4c-0.3-0.2-0.6-0.4-0.9-0.7c-0.3-0.3-0.5-0.6-0.6-1c-0.2-0.4-0.2-0.9-0.2-1.5c0-0.5,0.1-1,0.3-1.4s0.4-0.9,0.8-1.2
				c0.3-0.4,0.8-0.6,1.3-0.9c0.5-0.2,1.1-0.3,1.7-0.3c0.7,0,1.4,0.1,2,0.4c0.6,0.2,1.1,0.6,1.6,1L130.2,45.5z"/>
			<path class="st7" d="M143.4,56.4h-1.8c-0.2,0-0.4-0.1-0.5-0.2c-0.1-0.1-0.2-0.2-0.3-0.4l-0.9-2.7h-5.1l-0.9,2.7
				c0,0.1-0.1,0.3-0.3,0.4c-0.1,0.1-0.3,0.2-0.5,0.2h-1.8l4.9-13.3h2.4L143.4,56.4z M139.3,51.4l-1.5-4.4c-0.1-0.2-0.2-0.4-0.2-0.7
				c-0.1-0.3-0.2-0.6-0.2-0.9c-0.1,0.3-0.2,0.6-0.2,0.9c-0.1,0.3-0.2,0.5-0.2,0.7l-1.5,4.4H139.3z"/>
			<path class="st7" d="M158.1,43.1v13.3h-2v-8.6c0-0.3,0-0.7,0.1-1.1l-3.8,7.6c-0.2,0.4-0.4,0.5-0.8,0.5h-0.3
				c-0.4,0-0.6-0.2-0.8-0.5l-3.8-7.6c0,0.2,0,0.4,0,0.6c0,0.2,0,0.4,0,0.5v8.6h-2V43.1h1.7c0.1,0,0.2,0,0.3,0c0.1,0,0.1,0,0.2,0
				c0.1,0,0.1,0.1,0.2,0.1c0,0.1,0.1,0.1,0.1,0.2l3.7,7.4c0.1,0.2,0.2,0.4,0.3,0.6c0.1,0.2,0.2,0.4,0.2,0.6c0.1-0.2,0.2-0.4,0.2-0.7
				c0.1-0.2,0.2-0.4,0.3-0.6l3.7-7.4c0-0.1,0.1-0.2,0.1-0.2c0.1-0.1,0.1-0.1,0.2-0.1c0.1,0,0.1,0,0.2,0c0.1,0,0.2,0,0.3,0H158.1z"/>
			<path class="st7" d="M171.5,56.4h-1.8c-0.2,0-0.4-0.1-0.5-0.2c-0.1-0.1-0.2-0.2-0.3-0.4l-0.9-2.7h-5.1l-0.9,2.7
				c0,0.1-0.1,0.3-0.3,0.4c-0.1,0.1-0.3,0.2-0.5,0.2h-1.8l4.9-13.3h2.4L171.5,56.4z M167.5,51.4l-1.5-4.4c-0.1-0.2-0.2-0.4-0.2-0.7
				c-0.1-0.3-0.2-0.6-0.2-0.9c-0.1,0.3-0.2,0.6-0.2,0.9c-0.1,0.3-0.2,0.5-0.2,0.7l-1.5,4.4H167.5z"/>
			<path class="st7" d="M177.6,51.7c0,0.7-0.1,1.4-0.3,2c-0.2,0.6-0.4,1.1-0.8,1.5c-0.3,0.4-0.8,0.7-1.3,1c-0.5,0.2-1.1,0.3-1.8,0.3
				c-0.3,0-0.6,0-0.9-0.1c-0.3,0-0.6-0.1-0.9-0.2c0-0.2,0-0.5,0.1-0.7s0-0.5,0.1-0.7c0-0.1,0.1-0.2,0.2-0.3s0.2-0.1,0.4-0.1
				c0.1,0,0.2,0,0.4,0.1c0.2,0,0.4,0.1,0.6,0.1c0.3,0,0.6-0.1,0.9-0.2c0.3-0.1,0.5-0.3,0.6-0.5c0.2-0.2,0.3-0.5,0.4-0.9
				c0.1-0.4,0.1-0.8,0.1-1.3v-8.6h2.3V51.7z"/>
		</g>
		<path class="st7" d="M79,32.7c1.3-0.2,2.5,1.5,1.8,2.8c-0.5,1.7-3.2,1.5-3.3-0.3C77.3,34.1,78,32.9,79,32.7z"/>
		<g>
			<g>
				<path class="st1" d="M70.3,59.7c-0.1-0.1-0.3-0.4-0.8-0.6c-0.3-0.1-0.6-0.2-0.9-0.2c-0.5,0.1-0.8,0.3-0.9,0.4
					c-5.2,5.2-10.4,8.8-14.8,10.7c-1.6,0.7-3.2,1.2-4.5,1.5c-1.6,0.3-3.1,0.3-4.5,0.2c-2.4-0.2-4.3-0.8-4.7-0.9
					c-2.1-0.7-2.2-1.2-2.2-1.4c0-0.5,1.1-1,1.4-1.2c0.7-0.3,1.8-0.7,5.6-0.2c2.4,0.3,3.6,0.5,3.8,0.5c0,0,0.7,0.2,2,0.2
					c0.7,0,1.1-0.1,1.3-0.4c0.2-0.2,0.2-0.5,0.2-0.7c0-0.6-0.5-1.1-0.9-1.4c-2.1-1.7-6.9-3.1-6.9-3.1c-2.3-0.6-3.4-1-3.9-1.1
					c-2.9-0.6-6.8-1.5-11.1-0.6c-1.2,0.2-1.4,0.4-2.8,0.6c-1.4,0.2-3.3,0.5-5.8,0.3c-0.9-0.1-1.9-0.2-3.2-0.6
					C9.4,55.2,4.9,45.7,4.9,35c0-16.4,10.7-30.2,25.4-35C13,4,0,19.6,0,38.2C0,49.1,4.4,58.9,11.6,66c7.1,7,16.8,11.3,27.6,11.3
					c13.1,0,24.6-6.4,31.7-16.2C70.8,60.2,70.3,59.7,70.3,59.7z"/>
				<path class="st1" d="M55.1,67.9l8.6-6.4c0.6-0.4,0.7-1.3,0.3-1.9c-0.4-0.6-1.3-0.7-1.9-0.3l-8.6,6.4c-0.6,0.4-0.7,1.3-0.3,1.9
					C53.6,68.3,54.5,68.4,55.1,67.9z"/>
			</g>
			<path class="st1" d="M69.6,9.9c1.6-1.1,3.3,0.2,4.6,1.1c0,0.1,0,0.2-0.1,0.3c-2.4,1.5-4.7,3.1-7.1,4.5c-1.6,0.8-3.1-0.6-4.4-1.5
				C64.9,12.9,67.2,11.4,69.6,9.9z"/>
			<path class="st1" d="M33,10.2c4-2.8,8.9-1.2,13.1,0.2c-0.5,0.6-1.1,1-1.8,1.3c-2.6-0.6-5.9-0.4-7.6,2.2c-0.6,1-0.8,2.3-1,3.5
				c1.3,0,2.5,0,3.8,0c18.1,0,36.1-0.1,54.2,0c-0.7,1.1-1.9,0.9-3,0.9c0,4.5,0,9,0,13.5c-2.4,1.6-5.4,2-8.1,1.2c-2-0.6-3.6-2-5.5-3
				c0-2.2-0.1-4.3,0.1-6.5c2.4-2.1,5.4-3.4,8-5.1c-5.9-0.1-11.9-0.1-17.8,0c1.3,1.1,1.6,2.9,1.1,4.5c1.4,0.3,1.9-1.7,3.3-1.6
				c1.1,0.7,2.2,1.3,3.2,2.1c-0.2,3.3-1.1,6.8-3.5,8.9c-2.1,2-5,2.1-7.5,1.6c-4.3-1.1-7.3-5.6-8.2-10.2c1.1-0.7,2.5-1.7,3.8-1.1
				c1.3,0.4,1.6,2.1,2.2,3.2c0.9,2.1,3,3.8,5.2,3.5c1.3-0.3,2.2-1.5,2.8-2.8c-1.8,0.8-4.2,0.8-5.7-0.8c-2-1.8-2.2-5.8,0.1-7.4
				c-3.7,0-7.4,0-11.1,0c-0.1,3.6,0.2,7.2-0.3,10.8c-0.5,2.8-2.5,5-4.7,6.2c-0.1-2.5,0.1-4.9-0.1-7.4c-0.5-1.5-2.2-2.1-3.5-2.3
				c0.6,0.9,0.9,2.1,0.3,3.2c-0.8,1.9-3.2,2.6-4.6,1.1c-2.7-2.4-1.5-7.6,1.7-8.6c2.1-0.5,4.2,0,6.1,1c0.1-1.3,0.1-2.7,0.1-4
				c-2.6,0-5.3,0-7.9,0c-1.5,0-2.9,0-4.4,0c0,2.8,0.1,5.6,0,8.4c-0.2,3.6-2.4,6.9-5.2,8.6c-0.1-5.7,0-11.3,0-17c-1,0-1.9,0-2.8,0.1
				c0.1,5.2,0,10.4,0,15.6c-1.5,0.9-3.1,1.8-4.8,1.6c-2.5-0.1-4.4-2-6.5-3.3c0-1.4-0.2-3.1,0.8-4.1c1.3-1.3,2.9-1.9,4.3-3
				c-0.1-0.5-0.5-0.9-0.9-1.2c-0.7,1-1.5,2-2.7,2.4c-1.1,0.4-2.6,1-3.6-0.1c-0.9-0.7-0.7-2-0.8-3.1c0.8-0.2,1.7-0.2,2.4-0.7
				c0.3-0.6,0.1-1.3,0.1-2c-1.1-0.4-2.1-1-2.7-2.2c-0.8-0.1-1.7-0.2-2.5-0.3c2.1-1,4.5-0.7,6.7-0.7c4.2,0.1,8.5,0,12.7,0
				C30.5,14.7,31.1,11.9,33,10.2 M19.1,18.2c0.9,0.6,1.5,1.5,1.9,2.5c0.4,0.7,0.9,1.9,1.9,1.6c0.7-1.2,0.2-2.7,0-4
				C21.6,18.1,20.3,18.2,19.1,18.2 M82,25.9c1.2,0.9,2.4,1.7,3.7,2.3c0.1-1.5,0.2-3,0-4.5C84.4,24.4,83.1,25,82,25.9 M21.3,30
				c0,0.2,0,0.5,0,0.6c0.5,0.3,1.1,0.7,1.7,0.9c0-0.7,0-1.5,0.1-2.2C22.4,29.5,21.9,29.8,21.3,30z"/>
			<path class="st1" d="M97.6,18.3c1-1.2,2.6-0.8,3.9-0.8c10.1,0,20.1,0,30.2,0c15.9,0,31.9,0,47.8,0c-0.5,0.4-1,0.8-1.6,0.8
				c-2.2,0.1-4.5-0.1-6.7,0.1c1.2,0.9,2.6,1.4,3.5,2.7c1.5,1.9,1.8,4.6,1.5,7c-0.3,4.1-2.7,7.8-6,9.6c-0.1-3.8,0.1-7.6-0.1-11.3
				c-0.5-2.9-3.2-3.9-5.2-5.2c-0.8-0.5-1.9-1.4-2.8-0.7c-0.9,0.8-0.6,2.5,0.4,3.1c0.8,0.7,1.9,0.1,2.8,0c1.1,0.7,2.2,1.4,3.4,2.1
				c0.2,3.3-0.7,6.8-3.1,9c-2.4,1.9-5.5,1.9-8.3,1.3c-4.5-1.3-8-5.4-9.3-10.2c1.5-0.9,2.9-2.7,4.7-2c1.3,0.4,1.6,1.9,2.2,3.1
				c1.2,2.5,3.6,4.4,6.2,4.1c1.6,0,3-1.5,3.2-3.3c-0.9,0.4-1.8,1-2.8,0.9c-2.7,0.1-5.2-2.6-5.1-5.6c-0.2-1.7,0.4-3.3,1.1-4.8
				c-4.2,0-8.4,0-12.6,0c-0.2,3.5,0.2,7.1-0.2,10.6c-0.5,3.8-2.8,7-5.8,8.8c-0.2-4.6,0-9.3-0.1-13.9c-0.1-1.8,0.2-3.7-0.2-5.5
				c-1,0-2,0-3,0c-0.4,3.5,0,7.1-0.2,10.6c-0.4,3.7-2.6,7-5.5,8.8c0-2,0-4.1,0-6.1c0-0.9-0.5-1.8-1.1-2.3c-0.8-0.6-1.8-0.9-2.7-1.1
				c0.2,1.3,0.7,2.9,0.1,4.1c-0.9,1.3-2.5,1.6-3.8,1.4c-2.5-0.6-4-3.9-2.9-6.5c0.5-2.2,2.4-3.3,4.3-3.9c-0.6-1.7-2.4-1.9-3.5-2.9
				c-0.4-0.6-0.4-1.4-0.6-2.2c-1.2,0.1-2.5-0.2-3.6,0.2c-0.2,3.3,0.1,6.7-0.1,10c-0.4,4-2.8,7.3-5.9,9.3c-0.1-2.8,0-5.6,0-8.4
				c-0.8-0.4-1.5-0.8-2.3-1.2c-0.5,1.1-1.1,2.3-2.1,3c-1.7,1.4-3.9,1.6-6,1.7c0-1.6,0-3.2,0.1-4.8c1.8,0,3.8-1.2,3.9-3.4
				c0.2-2.3-1.8-3.5-3.3-4.6c-0.1-0.5-0.1-1.1-0.2-1.6C99.3,18.4,98.4,18.4,97.6,18.3 M106.3,18.4c0.9,1.4,1.5,3,1.9,4.6
				c0.6,0.3,1.2,0.6,1.8,0.9c-0.1-1.7,0.2-3.5-0.4-5.2C108.5,18.4,107.4,18.3,106.3,18.4 M126.5,18.4c0.9,1.6,1.7,3.3,1.7,5.2
				c0.6,0.4,1.2,0.8,1.8,1.1c0-1.9,0.2-3.9-0.1-5.8C129.2,17.8,127.7,18.5,126.5,18.4z"/>
		</g>
	</g>
	<g>
		<text transform="matrix(1 0 0 1 273.3866 44.475)" class="st1" style="font-family:'SourceSansPro-Bold'; font-size:22.5082px;">HOME</text>
		
			<text transform="matrix(1 0 0 1 510.7205 44.475)" style="fill:#363838; font-family:'SourceSansPro-Bold'; font-size:22.5082px;">PROJECTS</text>
		
			<text transform="matrix(1 0 0 1 662.6409 44.475)" style="fill:#363838; font-family:'SourceSansPro-Bold'; font-size:22.5082px;">GALLERY</text>
		
			<text transform="matrix(1 0 0 1 800.3784 44.475)" style="fill:#363838; font-family:'SourceSansPro-Bold'; font-size:22.5082px;">CONTACT</text>
		
			<text transform="matrix(1 0 0 1 940.2021 44.475)" style="fill:#363838; font-family:'SourceSansPro-Bold'; font-size:22.5082px;">GET INVOLVED</text>
		
			<text transform="matrix(1 0 0 1 390.5572 44.475)" style="fill:#363838; font-family:'SourceSansPro-Bold'; font-size:22.5082px;">ABOUT</text>
		<g>
			
				<text transform="matrix(1 0 0 1 1236.868 47.4748)" class="st1" style="font-family:'SourceSansPro-Bold'; font-size:22.5082px;">DONATE</text>
			<rect x="1188.7" y="5.1" class="st8" width="190.6" height="67.1"/>
		</g>
	</g>
	<g>
		<path class="st9" d="M1275.6-27h99.2c2.5,0,4.5-2,4.5-4.5v-26.8c0-2.5-2-4.5-4.5-4.5h-99.2c-2.5,0-4.5,2-4.5,4.5v26.8
			C1271-29,1273.1-27,1275.6-27z"/>
		<path class="st10" d="M1276.6-62.9c-3.1,0-5.6,2.5-5.6,5.6v24.7c0,3.1,2.5,5.6,5.6,5.6h41.5v-35.9H1276.6z"/>
		
			<text transform="matrix(1.1611 0 0 1 1280.1711 -37.6273)" style="fill:#363838; font-family:'SourceSansPro-SemiBold'; font-size:20.8254px;">EN</text>
		<g>
			
				<text transform="matrix(1 0 0 1 1329.8821 -37.9222)" style="fill:#363838; font-family:'KarnaphuliMJBold'; font-size:21.7268px;">evsjv</text>
		</g>
	</g>
</g>
<g id="Our_Story">
	<g>
		<rect x="943" y="883.4" class="st1" width="436.3" height="244.5"/>
		<text transform="matrix(1 0 0 1 1057.9055 992.7409)" class="st5" style="font-family:'TwCenMT-Bold'; font-size:32.9778px;">OUR VISION</text>
		<rect x="969.1" y="1009.3" style="fill:none;" width="384.2" height="115.5"/>
		<text transform="matrix(1 0 0 1 969.0705 1024.3717)"><tspan x="0" y="0" class="st5" style="font-family:'SourceSansPro-Regular'; font-size:21.2px;">Our vision is to have a prosperous nation </tspan><tspan x="0" y="24.7" class="st5" style="font-family:'SourceSansPro-Regular'; font-size:21.2px;">with each contented in every aspect.</tspan></text>
		
			<image style="overflow:visible;" width="130" height="130" xlink:href="../../Web ai format/Home/Links/icon2.png"  transform="matrix(1.7214 0 0 1.7214 1049.2581 739.3226)">
		</image>
	</g>
	<g>
		<rect y="883.4" class="st1" width="436.3" height="244.5"/>
		
			<image style="overflow:visible;" width="130" height="130" xlink:href="../../Web ai format/Home/Links/belief.png"  transform="matrix(1.7214 0 0 1.7214 106.2412 739.3226)">
		</image>
		<text transform="matrix(1 0 0 1 121.5705 992.7409)" class="st5" style="font-family:'TwCenMT-Bold'; font-size:32.9778px;">OUR BELIEF</text>
		<rect x="26.1" y="1015.4" style="fill:none;" width="384.2" height="103.2"/>
		<text transform="matrix(1 0 0 1 26.0534 1030.5026)"><tspan x="0" y="0" class="st5" style="font-family:'SourceSansPro-Regular'; font-size:21.2px;">Every human being is equal and deserves </tspan><tspan x="0" y="24.7" class="st5" style="font-family:'SourceSansPro-Regular'; font-size:21.2px;">the same respect despite their religious be-</tspan><tspan x="0" y="49.5" class="st5" style="font-family:'SourceSansPro-Regular'; font-size:21.2px;">liefs, qualifications or class.</tspan></text>
	</g>
	<g>
		<rect x="470.9" y="883.4" class="st7" width="436.3" height="281"/>
		<g>
			<text transform="matrix(1 0 0 1 573.6789 992.7409)" class="st5" style="font-family:'TwCenMT-Bold'; font-size:32.9778px;">OUR MISSION</text>
		</g>
		<rect x="496.9" y="1009.3" style="fill:none;" width="384.2" height="147.1"/>
		<text transform="matrix(1 0 0 1 496.9357 1024.3717)"><tspan x="0" y="0" class="st5" style="font-family:'SourceSansPro-Regular'; font-size:21.2px;">Our mission is to build a country where edu-</tspan><tspan x="0" y="24.7" class="st5" style="font-family:'SourceSansPro-Regular'; font-size:21.2px;">cation is provided to every child, to build a </tspan><tspan x="0" y="49.5" class="st5" style="font-family:'SourceSansPro-Regular'; font-size:21.2px;">community where every individual has the </tspan><tspan x="0" y="74.2" class="st5" style="font-family:'SourceSansPro-Regular'; font-size:21.2px;">same rights and enjoying a healthy and </tspan><tspan x="0" y="98.9" class="st5" style="font-family:'SourceSansPro-Regular'; font-size:21.2px;">happy life.</tspan></text>
		
			<image style="overflow:visible;" width="130" height="130" xlink:href="../../Web ai format/Home/Links/vision.png"  transform="matrix(1.7214 0 0 1.7214 577.1234 739.3226)">
		</image>
	</g>
	<g>
		<path class="st1" d="M899.9,1661.5h-140c-2.9,0-5.3-2.4-5.3-5.3V1627c0-2.9,2.4-5.3,5.3-5.3h140c2.9,0,5.3,2.4,5.3,5.3v29.2
			C905.2,1659.1,902.8,1661.5,899.9,1661.5z"/>
		<g>
			<text transform="matrix(1 0 0 1 766.4631 1649.0045)" class="st5" style="font-family:'TwCenMT-Bold'; font-size:21.2px;">READ MORE</text>
		</g>
	</g>
	<rect x="754.5" y="1326.2" style="fill:none;" width="624.8" height="284.6"/>
	<text transform="matrix(1 0 0 1 754.4924 1341.3209)"><tspan x="0" y="0" style="fill:#414342; font-family:'SourceSansPro-Regular'; font-size:21.2px;">Lorem ipsum dolor sit amet, consectetuer adipiscing elit, sed diam </tspan><tspan x="0" y="25.9" style="fill:#414342; font-family:'SourceSansPro-Regular'; font-size:21.2px;">nonummy nibh euismod tincidunt ut laoreet dolore magna aliquam </tspan><tspan x="0" y="51.8" style="fill:#414342; font-family:'SourceSansPro-Regular'; font-size:21.2px;">erat volutpat. Ut wisi enim ad minim veniam, quis nostrud exerci tation </tspan><tspan x="0" y="77.7" style="fill:#414342; font-family:'SourceSansPro-Regular'; font-size:21.2px;">ullamcorper suscipit lobortis nisl ut aliquip ex ea commodo consequat. </tspan><tspan x="0" y="103.6" style="fill:#414342; font-family:'SourceSansPro-Regular'; font-size:21.2px;">Duis autem vel eum iriure dolor in hendrerit in vulputate velit esse mo-</tspan><tspan x="0" y="129.6" style="fill:#414342; font-family:'SourceSansPro-Regular'; font-size:21.2px;">lestie consequat, vel illum dolore eu feugiat nulla facilisis at vero eros et </tspan><tspan x="0" y="155.5" style="fill:#414342; font-family:'SourceSansPro-Regular'; font-size:21.2px;">accumsan et iusto odio dignissim qui blandit praesent luptatum zzril </tspan><tspan x="0" y="181.4" style="fill:#414342; font-family:'SourceSansPro-Regular'; font-size:21.2px;">delenit augue duis dolore te feugait nulla facilisi.</tspan><tspan x="0" y="207.3" style="fill:#414342; font-family:'SourceSansPro-Regular'; font-size:21.2px;">Lorem ipsum dolor sit amet, cons ectetuer adipiscing elit, sed diam  </tspan><tspan x="0" y="233.2" style="fill:#414342; font-family:'SourceSansPro-Regular'; font-size:21.2px;">Lorem ipsum dolor sit amet, cons ectetuer adipiscing elit, sed diam </tspan><tspan x="0" y="259.1" style="fill:#414342; font-family:'SourceSansPro-Regular'; font-size:21.2px;">Lorem ipsum dolor sit amet, cons ectetuer adipiscing elit, sed diam......</tspan></text>
	<g>
		<g>
			<defs>
				<rect id="SVGID_3_" y="1271.4" width="691.2" height="388.9"/>
			</defs>
			<clipPath id="SVGID_4_">
				<use xlink:href="#SVGID_3_"  style="overflow:visible;"/>
			</clipPath>
			<g style="clip-path:url(#SVGID_4_);">
				
					<image style="overflow:visible;" width="1621" height="911" xlink:href="284762B8.jpg"  transform="matrix(0.432 0 0 0.432 -3.5333 1269.4069)">
				</image>
			</g>
		</g>
		<rect y="1271.4" class="st11" width="691.2" height="388.9"/>
		<g>
			<linearGradient id="SVGID_5_" gradientUnits="userSpaceOnUse" x1="360.0007" y1="1490.7838" x2="331.2437" y2="1440.9753">
				<stop  offset="0.1898" style="stop-color:#ED1C24"/>
				<stop  offset="0.7246" style="stop-color:#F92B2B"/>
				<stop  offset="0.7781" style="stop-color:#F92B2B"/>
				<stop  offset="0.859" style="stop-color:#FC4848"/>
				<stop  offset="0.9473" style="stop-color:#FE6262"/>
				<stop  offset="1" style="stop-color:#FF6C6C"/>
			</linearGradient>
			<path class="st12" d="M374.4,1465.9c0,4.6-1.1,9-3.1,12.9c-4.7,9.4-14.5,15.8-25.7,15.8c-0.3,0-0.6,0-0.9,0
				c-15.5-0.5-27.8-13.2-27.8-28.7c0-15.9,12.9-28.8,28.8-28.8C361.5,1437.1,374.4,1450,374.4,1465.9z"/>
			<linearGradient id="SVGID_6_" gradientUnits="userSpaceOnUse" x1="362.584" y1="1489.5795" x2="329.1124" y2="1456.1079">
				<stop  offset="0" style="stop-color:#FFFFFF"/>
				<stop  offset="0.1027" style="stop-color:#EFEFEF"/>
				<stop  offset="0.3049" style="stop-color:#C4C3C4"/>
				<stop  offset="0.5871" style="stop-color:#807E7E"/>
				<stop  offset="0.9358" style="stop-color:#231F20"/>
			</linearGradient>
			<path class="st13" d="M371.3,1478.8c-4.7,9.4-14.5,15.8-25.7,15.8c-0.3,0-0.6,0-0.9,0c0,0,0,0,0,0c0,0-0.1-0.1-0.1-0.1
				c0,0-0.1-0.1-0.1-0.1c0,0-0.1-0.1-0.1-0.1c0,0-0.1-0.1-0.1-0.1c0,0-0.1-0.1-0.1-0.1c0,0-0.1-0.1-0.1-0.1c0,0-0.1-0.1-0.1-0.1
				c0,0-0.1-0.1-0.1-0.1c0,0-0.1-0.1-0.1-0.1c0,0-0.1-0.1-0.1-0.1c0,0-0.1-0.1-0.1-0.1c0,0-0.1-0.1-0.1-0.1c0,0-0.1-0.1-0.1-0.1
				c0,0-0.1-0.1-0.1-0.1c0,0-0.1-0.1-0.1-0.1c0,0-0.1-0.1-0.1-0.1c0,0-0.1-0.1-0.1-0.1c0,0-0.1-0.1-0.1-0.1c0,0-0.1-0.1-0.1-0.1
				c0,0-0.1-0.1-0.1-0.1c0,0-0.1-0.1-0.1-0.1c0,0-0.1-0.1-0.1-0.1c0,0-0.1-0.1-0.1-0.1c0,0-0.1-0.1-0.1-0.1c0,0-0.1-0.1-0.1-0.1
				c0,0-0.1-0.1-0.1-0.1c0,0-0.1-0.1-0.1-0.1c0,0-0.1-0.1-0.1-0.1c0,0-0.1-0.1-0.1-0.1c0,0-0.1-0.1-0.1-0.1c0,0-0.1-0.1-0.1-0.1
				c0,0-0.1-0.1-0.1-0.1c0,0-0.1-0.1-0.1-0.1c0,0-0.1-0.1-0.1-0.1c0,0-0.1-0.1-0.1-0.1c0,0-0.1-0.1-0.1-0.1c0,0-0.1-0.1-0.1-0.1
				c0,0-0.1-0.1-0.1-0.1c0,0-0.1-0.1-0.1-0.1c0,0-0.1-0.1-0.1-0.1c0,0-0.1-0.1-0.1-0.1c0,0-0.1-0.1-0.1-0.1c0,0-0.1-0.1-0.1-0.1
				c0,0-0.1-0.1-0.1-0.1c0,0-0.1-0.1-0.1-0.1c0,0-0.1-0.1-0.1-0.1c0,0-0.1-0.1-0.1-0.1c0,0-0.1-0.1-0.1-0.1c0,0-0.1-0.1-0.1-0.1
				c0,0-0.1-0.1-0.1-0.1c0,0-0.1-0.1-0.1-0.1c0,0-0.1-0.1-0.1-0.1c0,0-0.1-0.1-0.1-0.1c0,0-0.1-0.1-0.1-0.1c0,0-0.1-0.1-0.1-0.1
				c0,0-0.1-0.1-0.1-0.1c0,0-0.1-0.1-0.1-0.1c0,0-0.1-0.1-0.1-0.1c0,0-0.1-0.1-0.1-0.1c0,0-0.1-0.1-0.1-0.1c0,0-0.1-0.1-0.1-0.1
				c0,0-0.1-0.1-0.1-0.1c0,0-0.1-0.1-0.1-0.1c0,0-0.1-0.1-0.1-0.1c0,0-0.1-0.1-0.1-0.1c0,0-0.1-0.1-0.1-0.1c0,0-0.1-0.1-0.1-0.1
				c0,0-0.1-0.1-0.1-0.1c0,0-0.1-0.1-0.1-0.1c0,0-0.1-0.1-0.1-0.1c0,0-0.1-0.1-0.1-0.1c0,0-0.1-0.1-0.1-0.1c0,0-0.1-0.1-0.1-0.1
				c0,0-0.1-0.1-0.1-0.1c0,0-0.1-0.1-0.1-0.1c0,0-0.1-0.1-0.1-0.1c0,0-0.1-0.1-0.1-0.1c0,0-0.1-0.1-0.1-0.1c0,0-0.1-0.1-0.1-0.1
				c0,0-0.1-0.1-0.1-0.1c0,0-0.1-0.1-0.1-0.1c0,0-0.1-0.1-0.1-0.1c0,0-0.1-0.1-0.1-0.1c0,0-0.1-0.1-0.1-0.1c0,0-0.1-0.1-0.1-0.1
				c0,0-0.1-0.1-0.1-0.1c0,0-0.1-0.1-0.1-0.1c0,0-0.1-0.1-0.1-0.1c0,0-0.1-0.1-0.1-0.1c0,0-0.1-0.1-0.1-0.1c0,0-0.1-0.1-0.1-0.1
				c0,0-0.1-0.1-0.1-0.1c0,0-0.1-0.1-0.1-0.1c0,0-0.1-0.1-0.1-0.1c0,0-0.1-0.1-0.1-0.1c0,0-0.1-0.1-0.1-0.1c0,0-0.1-0.1-0.1-0.1
				c0,0-0.1-0.1-0.1-0.1c0,0-0.1-0.1-0.1-0.1c0,0-0.1-0.1-0.1-0.1c0,0-0.1-0.1-0.1-0.1c0,0-0.1-0.1-0.1-0.1c0,0-0.1-0.1-0.1-0.1
				c0,0-0.1-0.1-0.1-0.1c0,0-0.1-0.1-0.1-0.1c0,0-0.1-0.1-0.1-0.1c0,0-0.1-0.1-0.1-0.1c0,0-0.1-0.1-0.1-0.1c0,0-0.1-0.1-0.1-0.1
				c0,0-0.1-0.1-0.1-0.1c-0.2-0.3-0.4-0.6-0.4-1v-31.3c0-1.3,1.5-2.1,2.5-1.3l22.7,15.6c0.2,0.1,0.3,0.3,0.4,0.4
				c0,0,0.1,0.1,0.1,0.1c0,0,0.1,0.1,0.1,0.1c0,0,0.1,0.1,0.1,0.1c0,0,0.1,0.1,0.1,0.1c0,0,0.1,0.1,0.1,0.1c0,0,0.1,0.1,0.1,0.1
				c0,0,0.1,0.1,0.1,0.1c0,0,0.1,0.1,0.1,0.1c0,0,0.1,0.1,0.1,0.1c0,0,0.1,0.1,0.1,0.1c0,0,0.1,0.1,0.1,0.1c0,0,0.1,0.1,0.1,0.1
				c0,0,0.1,0.1,0.1,0.1c0,0,0.1,0.1,0.1,0.1c0,0,0.1,0.1,0.1,0.1c0,0,0.1,0.1,0.1,0.1c0,0,0.1,0.1,0.1,0.1c0,0,0.1,0.1,0.1,0.1
				c0,0,0.1,0.1,0.1,0.1c0,0,0.1,0.1,0.1,0.1c0,0,0.1,0.1,0.1,0.1c0,0,0.1,0.1,0.1,0.1c0,0,0.1,0.1,0.1,0.1c0,0,0.1,0.1,0.1,0.1
				c0,0,0.1,0.1,0.1,0.1c0,0,0.1,0.1,0.1,0.1c0,0,0.1,0.1,0.1,0.1c0,0,0.1,0.1,0.1,0.1c0,0,0.1,0.1,0.1,0.1c0,0,0.1,0.1,0.1,0.1
				c0,0,0.1,0.1,0.1,0.1c0,0,0.1,0.1,0.1,0.1c0,0,0.1,0.1,0.1,0.1c0,0,0.1,0.1,0.1,0.1c0,0,0.1,0.1,0.1,0.1c0,0,0.1,0.1,0.1,0.1
				c0,0,0.1,0.1,0.1,0.1c0,0,0.1,0.1,0.1,0.1c0,0,0.1,0.1,0.1,0.1c0,0,0.1,0.1,0.1,0.1c0,0,0.1,0.1,0.1,0.1c0,0,0.1,0.1,0.1,0.1
				c0,0,0.1,0.1,0.1,0.1c0,0,0.1,0.1,0.1,0.1c0,0,0.1,0.1,0.1,0.1c0,0,0.1,0.1,0.1,0.1c0,0,0.1,0.1,0.1,0.1c0,0,0.1,0.1,0.1,0.1
				c0,0,0.1,0.1,0.1,0.1c0,0,0.1,0.1,0.1,0.1c0,0,0.1,0.1,0.1,0.1c0,0,0.1,0.1,0.1,0.1c0,0,0.1,0.1,0.1,0.1c0,0,0.1,0.1,0.1,0.1
				c0,0,0.1,0.1,0.1,0.1c0,0,0.1,0.1,0.1,0.1c0,0,0.1,0.1,0.1,0.1c0,0,0.1,0.1,0.1,0.1c0,0,0.1,0.1,0.1,0.1c0,0,0.1,0.1,0.1,0.1
				c0,0,0.1,0.1,0.1,0.1c0,0,0.1,0.1,0.1,0.1c0,0,0.1,0.1,0.1,0.1c0,0,0.1,0.1,0.1,0.1c0,0,0.1,0.1,0.1,0.1c0,0,0.1,0.1,0.1,0.1
				c0,0,0.1,0.1,0.1,0.1c0,0,0.1,0.1,0.1,0.1c0,0,0.1,0.1,0.1,0.1c0,0,0.1,0.1,0.1,0.1c0,0,0.1,0.1,0.1,0.1c0,0,0.1,0.1,0.1,0.1
				c0,0,0.1,0.1,0.1,0.1c0,0,0.1,0.1,0.1,0.1c0,0,0.1,0.1,0.1,0.1c0,0,0.1,0.1,0.1,0.1c0,0,0.1,0.1,0.1,0.1c0,0,0.1,0.1,0.1,0.1
				c0,0,0.1,0.1,0.1,0.1c0,0,0.1,0.1,0.1,0.1c0,0,0.1,0.1,0.1,0.1c0,0,0.1,0.1,0.1,0.1c0,0,0.1,0.1,0.1,0.1c0,0,0.1,0.1,0.1,0.1
				c0,0,0.1,0.1,0.1,0.1c0,0,0.1,0.1,0.1,0.1c0,0,0.1,0.1,0.1,0.1c0,0,0.1,0.1,0.1,0.1c0,0,0.1,0.1,0.1,0.1c0,0,0.1,0.1,0.1,0.1
				c0,0,0.1,0.1,0.1,0.1c0,0,0.1,0.1,0.1,0.1c0,0,0.1,0.1,0.1,0.1c0,0,0.1,0.1,0.1,0.1c0,0,0.1,0.1,0.1,0.1c0,0,0.1,0.1,0.1,0.1
				c0,0,0.1,0.1,0.1,0.1c0,0,0.1,0.1,0.1,0.1c0,0,0.1,0.1,0.1,0.1c0,0,0.1,0.1,0.1,0.1c0,0,0.1,0.1,0.1,0.1c0,0,0.1,0.1,0.1,0.1
				c0,0,0.1,0.1,0.1,0.1c0,0,0.1,0.1,0.1,0.1c0,0,0.1,0.1,0.1,0.1c0,0,0.1,0.1,0.1,0.1c0,0,0.1,0.1,0.1,0.1c0,0,0.1,0.1,0.1,0.1
				c0,0,0.1,0.1,0.1,0.1c0,0,0.1,0.1,0.1,0.1c0,0,0.1,0.1,0.1,0.1c0,0,0.1,0.1,0.1,0.1c0,0,0.1,0.1,0.1,0.1c0,0,0.1,0.1,0.1,0.1
				c0,0,0.1,0.1,0.1,0.1c0,0,0.1,0.1,0.1,0.1c0,0,0.1,0.1,0.1,0.1c0,0,0.1,0.1,0.1,0.1c0,0,0.1,0.1,0.1,0.1c0,0,0.1,0.1,0.1,0.1
				c0,0,0.1,0.1,0.1,0.1c0,0,0.1,0.1,0.1,0.1c0,0,0.1,0.1,0.1,0.1c0,0,0.1,0.1,0.1,0.1c0,0,0.1,0.1,0.1,0.1
				C371.2,1478.7,371.3,1478.7,371.3,1478.8C371.3,1478.8,371.3,1478.8,371.3,1478.8z"/>
			<path class="st5" d="M335.4,1450.5v31.3c0,1.3,1.5,2.1,2.5,1.3l22.7-15.6c0.9-0.6,0.9-2,0-2.6l-22.7-15.6
				C336.9,1448.4,335.4,1449.2,335.4,1450.5z"/>
		</g>
	</g>
	
		<text transform="matrix(1 0 0 1 797.2062 1297.9108)" class="st1" style="font-family:'SourceSansPro-Bold'; font-size:40.0537px;">OUR STORY | WHO ARE WE?</text>
	<rect x="754.5" y="1271" class="st1" width="26.9" height="26.9"/>
</g>
<g id="Projects">
	<rect x="-268.6" y="1778.9" class="st14" width="1920" height="806.6"/>
	<g>
		<g>
			
				<text transform="matrix(1 0 0 1 575.8771 1903.1298)" class="st1" style="font-family:'SourceSansPro-Bold'; font-size:40.8896px;">OUR PROJECTS</text>
			<rect x="533.2" y="1875.7" class="st1" width="27.4" height="27.4"/>
		</g>
		<g>
			<circle class="st1" cx="624" cy="2488.9" r="6.2"/>
			<circle class="st15" cx="650.8" cy="2488.9" r="6.2"/>
			<circle class="st15" cx="677.5" cy="2488.9" r="6.2"/>
			<circle class="st15" cx="704.3" cy="2488.9" r="6.2"/>
			<circle class="st15" cx="731.1" cy="2488.9" r="6.2"/>
			<circle class="st15" cx="757.9" cy="2488.9" r="6.2"/>
		</g>
		<g>
			<text transform="matrix(1 0 0 1 162.0636 2431.0725)" class="st1" style="font-family:'SourceSansPro-Bold'; font-size:18px;">READ MORE →</text>
			<rect y="2324.4" style="fill:none;" width="432" height="72.5"/>
			<text transform="matrix(0.9421 0 0 1 1.941359e-04 2339.5281)"><tspan x="0" y="0" style="fill:#414342; font-family:'SourceSansPro-Regular'; font-size:21.2px;">Lorem ipsum dolor sit amet, consectetuer adipisc-</tspan><tspan x="0" y="25.9" style="fill:#414342; font-family:'SourceSansPro-Regular'; font-size:21.2px;">ing elit, sed diam nonummy nibh euismod tincidunt </tspan><tspan x="0" y="51.8" style="fill:#414342; font-family:'SourceSansPro-Regular'; font-size:21.2px;">ut laoreet dolore magna aliquam erat volutpat. Ut...</tspan></text>
			<g>
				<text transform="matrix(1 0 0 1 143.1563 2302.6755)" class="st1" style="font-family:'SourceSansPro-Bold'; font-size:30px;">EDUCATION </text>
			</g>
			<text transform="matrix(1 0 0 1 635.7022 2431.0725)" class="st1" style="font-family:'SourceSansPro-Bold'; font-size:18px;">READ MORE →</text>
			<rect x="473.6" y="2324.4" style="fill:none;" width="432" height="72.5"/>
			<text transform="matrix(0.9421 0 0 1 473.6387 2339.5281)"><tspan x="0" y="0" style="fill:#414342; font-family:'SourceSansPro-Regular'; font-size:21.2px;">Lorem ipsum dolor sit amet, consectetuer adipisc-</tspan><tspan x="0" y="25.9" style="fill:#414342; font-family:'SourceSansPro-Regular'; font-size:21.2px;">ing elit, sed diam nonummy nibh euismod tincidunt </tspan><tspan x="0" y="51.8" style="fill:#414342; font-family:'SourceSansPro-Regular'; font-size:21.2px;">ut laoreet dolore magna aliquam erat volutpat. Ut...</tspan></text>
			<g>
				<text transform="matrix(1 0 0 1 540.7949 2302.6755)" class="st1" style="font-family:'SourceSansPro-Bold'; font-size:30px;">EMERGENCY RESPONSE</text>
			</g>
			<text transform="matrix(1 0 0 1 1109.3408 2431.0725)" class="st1" style="font-family:'SourceSansPro-Bold'; font-size:18px;">READ MORE →</text>
			<rect x="947.3" y="2324.4" style="fill:none;" width="432" height="72.5"/>
			<text transform="matrix(0.9421 0 0 1 947.2773 2339.5281)"><tspan x="0" y="0" style="fill:#414342; font-family:'SourceSansPro-Regular'; font-size:21.2px;">Lorem ipsum dolor sit amet, consectetuer adipisc-</tspan><tspan x="0" y="25.9" style="fill:#414342; font-family:'SourceSansPro-Regular'; font-size:21.2px;">ing elit, sed diam nonummy nibh euismod tincidunt </tspan><tspan x="0" y="51.8" style="fill:#414342; font-family:'SourceSansPro-Regular'; font-size:21.2px;">ut laoreet dolore magna aliquam erat volutpat. Ut...</tspan></text>
			<g>
				<text transform="matrix(1 0 0 1 1018.4335 2302.6755)" class="st1" style="font-family:'SourceSansPro-Bold'; font-size:30px;">POVERTY ALLEVIATION</text>
			</g>
			<g>
				<defs>
					<path id="SVGID_7_" d="M429.5,2248H2.5c-1.4,0-2.5-1.1-2.5-2.5v-295c0-1.4,1.1-2.5,2.5-2.5h427c1.4,0,2.5,1.1,2.5,2.5v295
						C432,2246.8,430.9,2248,429.5,2248z"/>
				</defs>
				<clipPath id="SVGID_8_">
					<use xlink:href="#SVGID_7_"  style="overflow:visible;"/>
				</clipPath>
				<g style="clip-path:url(#SVGID_8_);">
					
						<image style="overflow:visible;" width="6000" height="4000" xlink:href="../../Web ai format/Home/Links/IMG_6141.jpg"  transform="matrix(7.948804e-02 0 0 7.948804e-02 -3.1646 1938.9763)">
					</image>
				</g>
			</g>
			<g>
				<defs>
					<path id="SVGID_9_" d="M903.2,2248h-427c-1.4,0-2.5-1.1-2.5-2.5v-295c0-1.4,1.1-2.5,2.5-2.5h427c1.4,0,2.5,1.1,2.5,2.5v295
						C905.6,2246.8,904.5,2248,903.2,2248z"/>
				</defs>
				<clipPath id="SVGID_10_">
					<use xlink:href="#SVGID_9_"  style="overflow:visible;"/>
				</clipPath>
				<g transform="matrix(1 0 0 1 3.051758e-05 0)" style="clip-path:url(#SVGID_10_);">
					
						<image style="overflow:visible;" width="6000" height="4000" xlink:href="../../Web ai format/Home/Links/2.JPG"  transform="matrix(8.017609e-02 0 0 8.017609e-02 438.9673 1935.2776)">
					</image>
				</g>
			</g>
			<g>
				<defs>
					<path id="SVGID_11_" d="M1376.8,2248h-427c-1.4,0-2.5-1.1-2.5-2.5v-295c0-1.4,1.1-2.5,2.5-2.5h427c1.4,0,2.5,1.1,2.5,2.5v295
						C1379.3,2246.8,1378.2,2248,1376.8,2248z"/>
				</defs>
				<clipPath id="SVGID_12_">
					<use xlink:href="#SVGID_11_"  style="overflow:visible;"/>
				</clipPath>
				<g style="clip-path:url(#SVGID_12_);">
					
						<image style="overflow:visible;" width="4032" height="2268" xlink:href="../../Web ai format/Home/Links/1-.JPG"  transform="matrix(0.1515 0 0 0.1515 944.0238 1910.5178)">
					</image>
				</g>
			</g>
		</g>
	</g>
</g>
<g id="Volunteer">
	<g>
		<defs>
			<rect id="SVGID_13_" x="-268.6" y="2585.4" width="1920" height="368.2"/>
		</defs>
		<clipPath id="SVGID_14_">
			<use xlink:href="#SVGID_13_"  style="overflow:visible;"/>
		</clipPath>
		<g style="clip-path:url(#SVGID_14_);">
			
				<image style="overflow:visible;" width="5024" height="2984" xlink:href="../../Web ai format/Home/Links/work-experience-header.png"  transform="matrix(0.3822 0 0 0.3822 -268.6394 2260.0996)">
			</image>
		</g>
	</g>
	<rect x="-268.6" y="2585.4" class="st16" width="1920" height="368.2"/>
	
		<text transform="matrix(1 0 0 1 320.5646 2778.1462)" class="st5" style="font-family:'SourceSansPro-Bold'; font-size:73.7547px;">BECOME A VOLUNTEER</text>
	<g>
		<path class="st17" d="M769.4,2876.8H612c-2.6,0-4.8-2.1-4.8-4.8v-47.2c0-2.6,2.1-4.8,4.8-4.8h157.4c2.6,0,4.8,2.1,4.8,4.8v47.2
			C774.2,2874.7,772.1,2876.8,769.4,2876.8z"/>
		<g>
			<text transform="matrix(1 0 0 1 633.4699 2854.3376)" style="font-family:'SourceSansPro-Bold'; font-size:17.0037px;">REGISTER NOW</text>
		</g>
	</g>
	<text transform="matrix(1 0 0 1 464.1815 2696.8276)" class="st5" style="font-family:'ZillaSlab-Italic'; font-size:40.8896px;">We need you! and your help</text>
</g>
<g id="Gallery">
	
		<image style="overflow:visible;opacity:0.42;" width="521" height="677" xlink:href="../../Web ai format/Home/Links/sadas.png"  transform="matrix(1 0 0 1 1111.3606 3266.0571)">
	</image>
	
		<image style="overflow:visible;opacity:0.42;" width="521" height="677" xlink:href="../../Web ai format/Home/Links/sadas.png"  transform="matrix(0 1 -1 0 -21.1209 3397.1086)">
	</image>
	
		<image style="overflow:visible;" width="521" height="677" xlink:href="../../Web ai format/Home/Links/sadas2.png"  transform="matrix(1 0 0 1 -268.6394 2953.6355)">
	</image>
	<g>
		
			<text transform="matrix(1 0 0 1 531.3179 3070.5867)" class="st1" style="font-family:'SourceSansPro-Bold'; font-size:40.8896px;">ACTIVITIES GALLERY</text>
		<rect x="488.7" y="3043.2" class="st1" width="27.4" height="27.4"/>
	</g>
	<g>
		<g>
			<defs>
				<rect id="SVGID_15_" x="232.3" y="3115.4" width="217.9" height="217.9"/>
			</defs>
			<clipPath id="SVGID_16_">
				<use xlink:href="#SVGID_15_"  style="overflow:visible;"/>
			</clipPath>
			<g style="clip-path:url(#SVGID_16_);">
				
					<image style="overflow:visible;" width="6000" height="4000" xlink:href="../../Web ai format/Home/Links/citypublic3.jpg"  transform="matrix(6.170294e-02 0 0 6.170294e-02 170.5772 3104.5752)">
				</image>
			</g>
		</g>
		<g>
			<defs>
				<rect id="SVGID_17_" x="464.6" y="3115.4" width="217.9" height="217.9"/>
			</defs>
			<clipPath id="SVGID_18_">
				<use xlink:href="#SVGID_17_"  style="overflow:visible;"/>
			</clipPath>
			<g transform="matrix(1 0 0 1 0 0)" style="clip-path:url(#SVGID_18_);">
				
					<image style="overflow:visible;" width="4496" height="3000" xlink:href="../../Web ai format/Home/Links/DSC_2091.JPG"  transform="matrix(8.443926e-02 0 0 8.443926e-02 391.6784 3093.8079)">
				</image>
			</g>
		</g>
		<g>
			<defs>
				<rect id="SVGID_19_" x="696.8" y="3115.4" width="217.9" height="217.9"/>
			</defs>
			<clipPath id="SVGID_20_">
				<use xlink:href="#SVGID_19_"  style="overflow:visible;"/>
			</clipPath>
			<g style="clip-path:url(#SVGID_20_);">
				
					<image style="overflow:visible;" width="4496" height="3000" xlink:href="../../Web ai format/Home/Links/DSC_6803.JPG"  transform="matrix(7.916269e-02 0 0 7.916269e-02 635.2532 3101.9727)">
				</image>
			</g>
		</g>
		<g>
			<defs>
				<rect id="SVGID_21_" x="929.1" y="3115.4" width="217.9" height="217.9"/>
			</defs>
			<clipPath id="SVGID_22_">
				<use xlink:href="#SVGID_21_"  style="overflow:visible;"/>
			</clipPath>
			<g transform="matrix(1 0 0 1 -6.103516e-05 0)" style="clip-path:url(#SVGID_22_);">
				
					<image style="overflow:visible;" width="5472" height="3648" xlink:href="../../Web ai format/Home/Links/IMG_4191.JPG"  transform="matrix(6.597276e-02 0 0 6.597276e-02 919.3826 3097.802)">
				</image>
			</g>
		</g>
		<g>
			<defs>
				<rect id="SVGID_23_" x="1161.4" y="3115.4" width="217.9" height="217.9"/>
			</defs>
			<clipPath id="SVGID_24_">
				<use xlink:href="#SVGID_23_"  style="overflow:visible;"/>
			</clipPath>
			<g style="clip-path:url(#SVGID_24_);">
				
					<image style="overflow:visible;" width="6000" height="4000" xlink:href="../../Web ai format/Home/Links/IMG_5712.JPG"  transform="matrix(5.788193e-02 0 0 5.788193e-02 1109.3408 3105.4426)">
				</image>
			</g>
		</g>
		<g>
			<defs>
				<rect id="SVGID_25_" y="3351.4" width="217.9" height="217.9"/>
			</defs>
			<clipPath id="SVGID_26_">
				<use xlink:href="#SVGID_25_"  style="overflow:visible;"/>
			</clipPath>
			<g style="clip-path:url(#SVGID_26_);">
				
					<image style="overflow:visible;" width="6000" height="4000" xlink:href="../../Web ai format/Home/Links/IMG_5927.JPG"  transform="matrix(5.660656e-02 0 0 5.660656e-02 -7.756 3347.1091)">
				</image>
			</g>
		</g>
		<g>
			<defs>
				<rect id="SVGID_27_" x="232.3" y="3351.4" width="217.9" height="217.9"/>
			</defs>
			<clipPath id="SVGID_28_">
				<use xlink:href="#SVGID_27_"  style="overflow:visible;"/>
			</clipPath>
			<g style="clip-path:url(#SVGID_28_);">
				
					<image style="overflow:visible;" width="4800" height="3440" xlink:href="../../Web ai format/Home/Links/IMG_6194.JPG"  transform="matrix(7.035584e-02 0 0 7.035584e-02 143.1563 3339.3101)">
				</image>
			</g>
		</g>
		<g>
			<defs>
				<rect id="SVGID_29_" x="464.6" y="3351.4" width="217.9" height="217.9"/>
			</defs>
			<clipPath id="SVGID_30_">
				<use xlink:href="#SVGID_29_"  style="overflow:visible;"/>
			</clipPath>
			<g style="clip-path:url(#SVGID_30_);">
				
					<image style="overflow:visible;" width="6000" height="4000" xlink:href="../../Web ai format/Home/Links/IMG_6539.JPG"  transform="matrix(5.684219e-02 0 0 5.684219e-02 402.9713 3347.1257)">
				</image>
			</g>
		</g>
		<g>
			<defs>
				<rect id="SVGID_31_" x="696.8" y="3351.4" width="217.9" height="217.9"/>
			</defs>
			<clipPath id="SVGID_32_">
				<use xlink:href="#SVGID_31_"  style="overflow:visible;"/>
			</clipPath>
			<g style="clip-path:url(#SVGID_32_);">
				
					<image style="overflow:visible;" width="6000" height="4000" xlink:href="../../Web ai format/Home/Links/IMG_6571.JPG"  transform="matrix(5.744914e-02 0 0 5.744914e-02 607.2409 3339.4609)">
				</image>
			</g>
		</g>
		<g>
			<defs>
				<rect id="SVGID_33_" x="929.1" y="3351.4" width="217.9" height="217.9"/>
			</defs>
			<clipPath id="SVGID_34_">
				<use xlink:href="#SVGID_33_"  style="overflow:visible;"/>
			</clipPath>
			<g transform="matrix(1 0 0 1 0 0)" style="clip-path:url(#SVGID_34_);">
				
					<image style="overflow:visible;" width="6000" height="4000" xlink:href="../../Web ai format/Home/Links/IMG_6704.JPG"  transform="matrix(5.703614e-02 0 0 5.703614e-02 867.253 3346.2498)">
				</image>
			</g>
		</g>
		<g>
			<defs>
				<rect id="SVGID_35_" x="1161.4" y="3351.4" width="217.9" height="217.9"/>
			</defs>
			<clipPath id="SVGID_36_">
				<use xlink:href="#SVGID_35_"  style="overflow:visible;"/>
			</clipPath>
			<g style="clip-path:url(#SVGID_36_);">
				
					<image style="overflow:visible;" width="6000" height="4000" xlink:href="../../Web ai format/Home/Links/IMG_6710.jpg"  transform="matrix(5.723133e-02 0 0 5.723133e-02 1083.3167 3344.4307)">
				</image>
			</g>
		</g>
		<g>
			<defs>
				<rect id="SVGID_37_" y="3587.3" width="217.9" height="217.9"/>
			</defs>
			<clipPath id="SVGID_38_">
				<use xlink:href="#SVGID_37_"  style="overflow:visible;"/>
			</clipPath>
			<g style="clip-path:url(#SVGID_38_);">
				
					<image style="overflow:visible;" width="6000" height="4000" xlink:href="../../Web ai format/Home/Links/IMG_6730.JPG"  transform="matrix(5.657001e-02 0 0 5.657001e-02 -66.2198 3583.5481)">
				</image>
			</g>
		</g>
		<g>
			<defs>
				<rect id="SVGID_39_" x="232.3" y="3587.3" width="217.9" height="217.9"/>
			</defs>
			<clipPath id="SVGID_40_">
				<use xlink:href="#SVGID_39_"  style="overflow:visible;"/>
			</clipPath>
			<g style="clip-path:url(#SVGID_40_);">
				
					<image style="overflow:visible;" width="6000" height="4000" xlink:href="../../Web ai format/Home/Links/IMG_6770.JPG"  transform="matrix(5.576249e-02 0 0 5.576249e-02 176.5433 3584.1592)">
				</image>
			</g>
		</g>
		<g>
			<defs>
				<rect id="SVGID_41_" x="464.6" y="3587.3" width="217.9" height="217.9"/>
			</defs>
			<clipPath id="SVGID_42_">
				<use xlink:href="#SVGID_41_"  style="overflow:visible;"/>
			</clipPath>
			<g style="clip-path:url(#SVGID_42_);">
				
					<image style="overflow:visible;" width="6000" height="4000" xlink:href="../../Web ai format/Home/Links/IMG_6817.jpg"  transform="matrix(5.953012e-02 0 0 5.953012e-02 362.2045 3577.2136)">
				</image>
			</g>
		</g>
		<g>
			<defs>
				<rect id="SVGID_43_" x="696.8" y="3587.3" width="217.9" height="217.9"/>
			</defs>
			<clipPath id="SVGID_44_">
				<use xlink:href="#SVGID_43_"  style="overflow:visible;"/>
			</clipPath>
			<g style="clip-path:url(#SVGID_44_);">
				
					<image style="overflow:visible;" width="6000" height="4000" xlink:href="../../Web ai format/Home/Links/IMG_6903.jpg"  transform="matrix(5.631524e-02 0 0 5.631524e-02 636.8335 3583.3389)">
				</image>
			</g>
		</g>
		<g>
			<defs>
				<rect id="SVGID_45_" x="929.1" y="3587.3" width="217.9" height="217.9"/>
			</defs>
			<clipPath id="SVGID_46_">
				<use xlink:href="#SVGID_45_"  style="overflow:visible;"/>
			</clipPath>
			<g style="clip-path:url(#SVGID_46_);">
				
					<image style="overflow:visible;" width="6000" height="4000" xlink:href="../../Web ai format/Home/Links/IMG_6923.JPG"  transform="matrix(5.813708e-02 0 0 5.813708e-02 888.0457 3581.1836)">
				</image>
			</g>
		</g>
		<g>
			<defs>
				<rect id="SVGID_47_" x="1161.4" y="3587.3" width="217.9" height="217.9"/>
			</defs>
			<clipPath id="SVGID_48_">
				<use xlink:href="#SVGID_47_"  style="overflow:visible;"/>
			</clipPath>
			<g style="clip-path:url(#SVGID_48_);">
				
					<image style="overflow:visible;" width="6000" height="4000" xlink:href="../../Web ai format/Home/Links/IMG_6952.jpg"  transform="matrix(5.744820e-02 0 0 5.744820e-02 1158.2024 3581.1836)">
				</image>
			</g>
		</g>
		<g>
			<path class="st15" d="M758.6,3897.1H622.3c-2.6,0-4.8-2.1-4.8-4.8v-40c0-2.6,2.1-4.8,4.8-4.8h136.3c2.6,0,4.8,2.1,4.8,4.8v40
				C763.4,3894.9,761.2,3897.1,758.6,3897.1z"/>
			<g>
				<text transform="matrix(1 0 0 1 643.5119 3878.2449)" style="font-family:'SourceSansPro-Bold'; font-size:17.9875px;">LOAD MORE</text>
			</g>
		</g>
		<g>
			<defs>
				<rect id="SVGID_49_" y="3115.4" width="217.9" height="217.9"/>
			</defs>
			<clipPath id="SVGID_50_">
				<use xlink:href="#SVGID_49_"  style="overflow:visible;"/>
			</clipPath>
			<g style="clip-path:url(#SVGID_50_);">
				
					<image style="overflow:visible;" width="1280" height="960" xlink:href="../../Web ai format/Home/Links/at shonirvor office.jpeg"  transform="matrix(0.2348 0 0 0.2348 -32.1401 3111.6445)">
				</image>
			</g>
		</g>
	</g>
</g>
<g id="Footer">
	<rect x="-268.6" y="3943.1" class="st18" width="1920" height="48.6"/>
	<g>
		<text transform="matrix(1 0 0 1 400.4792 3974.5513)"><tspan x="0" y="0" class="st5" style="font-family:'SourceSansPro-Regular'; font-size:19px;">© All right reserved 2022 </tspan><tspan x="197.4" y="0" class="st5" style="font-family:'SourceSansPro-Bold'; font-size:19px;">SHONIROVR SAMAJ</tspan><tspan x="359.2" y="0" class="st5" style="font-family:'SourceSansPro-Regular'; font-size:19px;">   — Developed by </tspan><tspan x="501.7" y="0" style="fill:#009E61; font-family:'SourceSansPro-Bold'; font-size:19px;">Climax IT</tspan></text>
	</g>
</g>
</svg>
